<svg id="Layer_1" data-name="Layer 1" xmlns="http://www.w3.org/2000/svg" viewBox="0 0 122.58 122.88"><defs><style>.cls-1{fill:#89bf3f;}.cls-2,.cls-4{fill:#203b79;}.cls-3{fill:#1f49a3;}.cls-3,.cls-4{fill-rule:evenodd;}.cls-5{fill:#4ca71e;}</style></defs><title>blueberry</title><path class="cls-1" d="M56.66,46.61l-1-3.35c.05-.21.08-.44.12-.67,4.66-27.1-8-46.41-47.06-41.95,7.73,20.56,5.56,50,42.31,46,4-.44,1.28.39,5.64-.07Zm8.15-4.39,1.84-1.48.45-.09c18.13-3.93,27-16.71,14.35-40-10.91,10-29.9,16.12-18.11,38.11,1.29,2.4.07.89,1.47,3.5ZM67,35.43c.28-11.3,10.08-19.38,12.85-28.22C78.91,21.57,74.23,24.28,67,35.43ZM48.52,39.86c-15.36-6.66-21-24.62-31.64-33.33C36.1,15.76,37.24,23.7,48.52,39.86Z"/><path class="cls-2" d="M22.69,119.17A39.87,39.87,0,0,1,9.24,108.92L9,108.64a39.84,39.84,0,0,1,30.85-65A39.79,39.79,0,0,1,62,50.32a6.18,6.18,0,0,1,.53.36h0a32.37,32.37,0,0,1,4.95-6.5l.19-.2a32.38,32.38,0,0,1,41-4l.34.24A32.33,32.33,0,0,1,77.06,96.14a39.79,39.79,0,0,1-54.37,23Z"/><path class="cls-3" d="M78.06,92.8A28.88,28.88,0,0,0,107,43.07h0l-.25-.17h0a28.94,28.94,0,0,0-41.45,9.94,39.73,39.73,0,0,1,14,30.28,40.18,40.18,0,0,1-1.19,9.69Zm-66.4,13.66a36.32,36.32,0,1,0,48.84-53h0l-.31-.22h0a36.39,36.39,0,0,0-48.51,53.2Z"/><path class="cls-4" d="M103.62,81.55a1.18,1.18,0,0,1,.73,2.24,16.24,16.24,0,0,0-4.14,2,15.28,15.28,0,0,0-3.25,3,1.17,1.17,0,1,1-1.82-1.48,17.56,17.56,0,0,1,3.76-3.44,19,19,0,0,1,4.72-2.3ZM44.24,109.87a1.48,1.48,0,1,0,2.15,2,20.85,20.85,0,0,1,4.51-3.62,19.18,19.18,0,0,1,5.13-2.1,1.46,1.46,0,0,0,1.08-1.78,1.48,1.48,0,0,0-1.79-1.09,22.7,22.7,0,0,0-5.93,2.42,24.34,24.34,0,0,0-5.15,4.13Z"/><path class="cls-5" d="M67,35.43c.28-11.3,10.08-19.38,12.85-28.22C78.91,21.57,74.23,24.28,67,35.43ZM48.52,39.86c-15.36-6.66-21-24.62-31.64-33.33C36.1,15.76,37.24,23.7,48.52,39.86Z"/></svg>