<svg xmlns="http://www.w3.org/2000/svg" shape-rendering="geometricPrecision" text-rendering="geometricPrecision" image-rendering="optimizeQuality" fill-rule="evenodd" clip-rule="evenodd" viewBox="0 0 512 502.75"><path fill="#D14B02" d="M65.81 133.63c-3.97 3.23-7.64 6.65-11.01 10.19a79.97 79.97 0 0 0-4.43 5.07c-1.33 1.63-2.54 3.34-3.72 5.13-16.92 25.6-6.93 46.49 5.1 71.74 1.31 2.74 2.63 5.55 3.61 7.66 23.6 50.9 51.84 97.69 83.1 140.73 31.3 43.05 65.69 82.37 101.57 118.25 2.37 2.39 2.69 2.73 2.96 2.99 5.75 5.92 8.55 8.79 15.1 5.99 5.95-2.56 6.18-6.38 6.63-13.87.13-1.96.25-4.34.3-4.88 3.39-42.88 1.88-90.08-6.01-142.91-7.86-52.63-22.09-110.96-44.07-176.3-2.94-8.71.56 1.61-1.35-4.13-8.35-25.03-13.86-41.53-40.92-50.57-1.51-.5-3.2-1-5.04-1.49-1.81-.48-3.6-.92-5.41-1.3-9-1.9-18.42-2.22-27.91-1.26-8.34-4.13-33.95 8.3-68.5 28.96z"/><path fill="#fff" d="M196.08 165.11c-.9-2.63-.36-1 0 0z"/><path fill="#FF7900" d="M137.86 192.01c4.43-1.8 9.51.35 11.31 4.77 1.79 4.43-.36 9.51-4.78 11.31l-67.65 27.45c19.32 40.18 41.72 77.85 66.26 113.11l41.79-16.96c4.42-1.8 9.51.35 11.3 4.78 1.8 4.42-.35 9.51-4.78 11.3l-37.95 15.4.05.06c29 39.89 60.72 76.53 93.81 110.15 1.39-21.73 1.47-44.68.06-68.96l-31.76 12.94c-4.43 1.8-9.51-.35-11.31-4.77-1.79-4.43.36-9.51 4.78-11.31l36.98-15.01a704.615 704.615 0 0 0-5.19-43.85c-4.07-27.32-9.91-56.22-17.68-86.86l-68.59 27.84c-4.43 1.79-9.51-.36-11.31-4.78-1.79-4.43.36-9.51 4.78-11.31l70.67-28.68c-6.03-22.18-13.04-45.28-21.16-69.36l-1.41-4.16c.21.58.3.94 0 0-6.59-19.77-10.94-32.75-29.31-38.93-1.32-.45-2.64-.83-3.93-1.2a74.28 74.28 0 0 0-4.49-1.05c-7.54-1.6-15.58-1.76-23.74-.8-8.91 1.06-17.98 3.5-26.63 6.97-7.72 3.08-15.12 7-21.92 11.49-6.76 4.48-12.8 9.51-17.84 14.85a70.712 70.712 0 0 0-3.43 3.94 61.75 61.75 0 0 0-2.74 3.74c-11.22 16.94-3.27 33.59 6.29 53.67l.96 2.06 68.56-27.84z"/><path fill="#75AA00" d="M155.58 33.38c-25.4 7.45-41.9 20.48-49.86 39.58C99.22 42.77 78.07 14.44 51.53 0c-9.18 33.16-3.91 65.55 13.98 91.14C45.92 81.86 24.29 83.67 0 96.52c12.26 22.52 36.83 40.4 66.58 38.47l72.05-31.27c19.26-19.36 23.41-47.14 16.95-70.34z"/><path fill="#498A0C" d="M155.58 33.38c-25.4 7.45-41.9 20.48-49.86 39.58 3.51 15.71 1 31.81-7.49 48.29l40.4-17.53c19.26-19.36 23.41-47.14 16.95-70.34z"/><path fill="#D14B02" d="M377.63 105.83c-5.08-.53-10.09-.7-14.98-.57-2.5.06-4.71.23-6.72.45-2.09.21-4.16.56-6.26.99-30.06 6.14-37.77 27.98-47.12 54.34-1.01 2.87-2.06 5.78-2.86 7.96-19.3 52.69-32.43 105.74-40.75 158.28-8.31 52.57-11.79 104.69-11.8 155.43-.01 3.37-.03 3.83-.01 4.21-.12 8.25-.18 12.27 6.43 14.91 6.02 2.4 8.88-.13 14.5-5.11 1.47-1.3 3.24-2.89 3.66-3.24 32.72-27.92 65.03-62.38 96.8-105.3 31.67-42.78 62.85-94.08 93.5-155.83 4.09-8.24-.74 1.53 1.97-3.88 11.79-23.6 19.57-39.16 6.82-64.68-.71-1.43-1.55-2.98-2.5-4.63-.94-1.62-1.89-3.19-2.91-4.74-5.02-7.71-11.46-14.59-18.85-20.63-2.98-8.82-29.87-18.13-68.92-27.96z"/><path fill="#fff" d="M447.49 220.21c1.23-2.5.46-.96 0 0z"/><path fill="#FF7900" d="M387.31 198.06c4.4 1.86 6.47 6.97 4.61 11.37-1.86 4.4-6.97 6.48-11.37 4.62l-67.25-28.43c-14.74 42.08-25.54 84.55-33.11 126.84l41.53 17.55c4.4 1.86 6.47 6.98 4.61 11.37-1.85 4.4-6.97 6.48-11.37 4.62l-37.73-15.95v.08c-7.7 48.71-11.18 97.04-11.55 144.22 16.34-14.38 32.63-30.55 48.8-48.72l-31.61-13.31c-4.4-1.86-6.47-6.97-4.62-11.37 1.86-4.4 6.98-6.47 11.38-4.62l36.75 15.54c9.15-10.86 18.27-22.41 27.35-34.68 16.43-22.19 32.74-46.76 48.91-73.92l-68.18-28.82c-4.4-1.86-6.48-6.97-4.62-11.37 1.86-4.4 6.98-6.47 11.38-4.62l70.25 29.7c11.42-19.95 22.79-41.25 34.08-64.01l1.94-3.94c-.26.56-.45.88 0 0 9.33-18.65 15.43-30.9 6.81-48.25-.62-1.26-1.28-2.46-1.93-3.63-.71-1.22-1.51-2.51-2.43-3.92-4.2-6.46-9.78-12.26-16.22-17.35-7.06-5.55-15.2-10.24-23.77-13.91a122.4 122.4 0 0 0-23.63-7.37c-7.94-1.61-15.76-2.32-23.1-2.11-1.7.05-3.44.17-5.22.36-1.7.2-3.22.43-4.58.71-19.91 4.05-26.06 21.43-33.5 42.39l-.78 2.14 68.17 28.79z"/><path fill="#75AA00" d="M512 98.43c-23.22-12.7-44.1-15.15-63.24-7.28 16.75-25.93 21.83-60.93 13.27-89.9-29.93 16.95-49.11 43.58-54.56 74.33-7.29-20.42-23.86-34.43-50.13-42.52-7.25 24.6-2.52 54.61 19.88 74.28l73.06 28.84c27.31-.07 49.89-16.79 61.72-37.75z"/><path fill="#498A0C" d="M512 98.43c-23.22-12.7-44.1-15.15-63.24-7.28-8.63 13.6-21.79 23.21-39.44 28.86l40.96 16.17c27.31-.07 49.89-16.79 61.72-37.75z"/></svg>