<?xml version="1.0" encoding="utf-8"?><svg version="1.1" id="Layer_1" xmlns="http://www.w3.org/2000/svg" xmlns:xlink="http://www.w3.org/1999/xlink" x="0px" y="0px" viewBox="0 0 109.72 122.88" style="enable-background:new 0 0 109.72 122.88" xml:space="preserve"><style type="text/css"><![CDATA[
	.st0{fill:#814832;}
	.st1{fill-rule:evenodd;clip-rule:evenodd;fill:#F9E5A0;}
]]></style><g><path class="st0" d="M1.27,81.08c-0.09-7.52,2.73-13.44,7.02-17.63c2.41-2.35,5.28-4.14,8.35-5.35c3.03-1.19,6.29-1.82,9.52-1.86 c6.15-0.07,12.19,2,16.44,6.37c1.44,1.47,2.6,3.01,3.82,4.63c1.55,2.05,3.22,4.27,5.51,6.35c1.69,1.54,3.36,2.75,4.99,3.61 C58.47,78,60,78.5,61.52,78.68l0.01,0c7.52,0.86,11.38-4.78,15-10.08c2.98-4.36,5.84-8.55,10.57-10.43c1.96-0.78,4-1.14,6.02-1.09 c2.06,0.06,4.08,0.53,5.95,1.42c3.24,1.54,5.63,3.51,7.32,5.78c1.73,2.32,2.71,4.91,3.11,7.64c0.49,3.33,0.1,6.85-0.82,10.34 c-2.46,9.35-8.18,18.46-15.24,25c-4.3,3.98-9.23,7.3-14.53,9.83c-6.69,3.19-14.02,5.15-21.46,5.66c-7.14,0.49-14.39-0.38-21.3-2.79 c-8.59-3-18.08-8.76-24.95-16.28C5.36,97.27,1.37,89.56,1.27,81.08L1.27,81.08z M7.17,11.89c3.43-3.5,7.8-6.26,12.55-8.16 c2.58-1.03,5.21-1.85,7.88-2.45c10.84-2.45,22.03-1.33,31.54,2.99c9.62,4.36,17.55,11.97,21.73,22.41 c0.83,2.06,1.51,4.24,2.02,6.52c0.36,1.59,0.63,3.2,0.8,4.81c0.16,1.54,0.22,3.09,0.17,4.63c-0.11,3.07-0.63,6.12-1.81,8.85 c-1.09,2.51-2.72,4.76-5.06,6.52c-1.62,1.22-3.42,2.19-5.3,2.86c-3.21,1.15-6.72,1.44-10.07,0.62c-3.41-0.83-6.61-2.79-9.13-6.14 c-1.23-1.64-2.29-3.6-3.11-5.9l0.01,0c-1.22-3.25-2.7-5.82-4.42-7.79c-1.65-1.89-3.53-3.24-5.6-4.12 c-1.28-0.54-2.62-0.87-4.03-1.02c-1.46-0.15-3.01-0.11-4.68,0.09c-1.72,0.21-3.51,0.58-5.4,1.08c-1.95,0.52-3.94,1.15-6,1.86 c-0.21,0.09-0.44,0.16-0.68,0.2c-3.29,0.62-6.16,0.58-8.58,0.01c-2.88-0.68-5.15-2.09-6.79-4.01c-1.5-1.77-2.43-3.67-2.88-5.67 c-0.48-2.11-0.4-4.27,0.12-6.4C1.53,19.16,3.93,15.2,7.17,11.89L7.17,11.89z"/><path class="st1" d="M4.63,81.04C4.38,60.33,29.4,53.89,40.2,64.95c3.05,3.12,5.16,7.19,9.48,11.12c3.77,3.43,7.6,5.51,11.48,5.95 c15.68,1.79,17.59-16.91,27.19-20.73c3.06-1.22,6.36-1.14,9.28,0.25c5.43,2.59,7.91,6.47,8.55,10.87 c0.93,6.33-1.91,13.75-5.23,19.88c-5.16,9.52-13.6,17.05-23.47,21.75c-12.37,5.9-26.99,7.36-40.2,2.74 C22.45,111.61,4.83,97.76,4.63,81.04L4.63,81.04z M20.97,6.85c-8.3,3.33-15.29,9.45-17.27,17.63c-0.77,3.16-0.3,6.31,2.06,9.1 c2.26,2.66,6.34,3.97,12.17,2.87c4.51-1.56,8.57-2.74,12.3-3.19c3.77-0.45,7.2-0.17,10.41,1.18c5.09,2.15,9.16,6.56,11.89,13.89 C56.83,60.36,68,60.56,74.96,55.32c3.94-2.97,5.35-7.81,5.53-12.8c0.1-2.82-0.24-5.75-0.88-8.58C73.74,8.03,45.06-2.8,20.97,6.85 L20.97,6.85z"/><path class="st0" d="M14.25,27.57c-0.59,0.72-1.66,0.82-2.37,0.22s-0.82-1.66-0.22-2.37c2.84-3.43,6.11-5.76,9.78-7.02 c3.66-1.25,7.69-1.43,12.06-0.55c0.91,0.18,1.51,1.07,1.33,1.98c-0.18,0.91-1.07,1.51-1.98,1.32c-3.79-0.76-7.24-0.62-10.32,0.43 C19.45,22.64,16.69,24.62,14.25,27.57L14.25,27.57z M20.3,73.83c-0.2-0.91,0.38-1.81,1.29-2c0.91-0.2,1.81,0.38,2,1.29 c0.21,0.98,0.5,1.94,0.85,2.87c2.52,6.65,8.47,12.31,15.93,15.86c7.52,3.58,16.53,5,25.09,3.13c1.62-0.35,3.22-0.82,4.78-1.41 c0.87-0.33,1.84,0.11,2.17,0.98c0.33,0.87-0.11,1.84-0.98,2.17c-1.73,0.66-3.49,1.17-5.26,1.56c-9.32,2.03-19.11,0.5-27.26-3.38 c-8.21-3.91-14.79-10.23-17.63-17.72C20.88,76.07,20.55,74.95,20.3,73.83L20.3,73.83z M86.13,87.04c-0.65,0.67-1.71,0.68-2.38,0.03 c-0.67-0.65-0.68-1.71-0.03-2.38c1.71-1.77,3.2-3.63,4.39-5.62c1.17-1.96,2.06-4.05,2.6-6.29c0.22-0.9,1.13-1.46,2.03-1.24 c0.9,0.22,1.46,1.13,1.24,2.03c-0.62,2.58-1.64,4.98-2.98,7.22C89.66,83.02,88.02,85.09,86.13,87.04L86.13,87.04z"/></g></svg>