<?xml version="1.0" encoding="utf-8"?><svg version="1.1" id="Layer_1" xmlns="http://www.w3.org/2000/svg" xmlns:xlink="http://www.w3.org/1999/xlink" x="0px" y="0px" viewBox="0 0 122.88 120.69" style="enable-background:new 0 0 122.88 120.69" xml:space="preserve"><style type="text/css">.st0{fill-rule:evenodd;clip-rule:evenodd;fill:#51184A;} .st1{fill-rule:evenodd;clip-rule:evenodd;fill:#682964;} .st2{fill-rule:evenodd;clip-rule:evenodd;fill:#84D10F;} .st3{fill-rule:evenodd;clip-rule:evenodd;fill:#50AC25;}</style><g><path class="st0" d="M78.36,26.79C51.11,38.53,4.81,61.76,0.29,91.78c-0.73,4.82-0.09,9.31,2.12,13.41 c8.45,15.7,29.79,18.2,45.35,13.15c22.14-7.18,40.72-30.78,53.18-49.71c4.09-6.22,7.76-12.61,10.86-19.22 c2.13,2.04,4.84,3.35,8.18,3.73l0,0c0.32,0.04,0.65-0.01,0.97-0.14c0.99-0.42,1.45-1.56,1.04-2.54c-0.99-2.33-1.43-4.97-1.54-7.76 c-0.12-2.88,0.11-5.94,0.44-9.01c0.16-1.45,0.53-3.03,0.9-4.61c1.03-4.4,2.07-8.8-0.59-12.98c-0.52-0.82-1.16-1.58-1.92-2.27 c-0.22-0.2-0.45-0.4-0.7-0.59c2.57-3.45,3.12-6.45,2.52-8.7c-0.47-1.74-1.58-3.03-3.04-3.79c-1.38-0.72-3.06-0.94-4.73-0.58 c-2.36,0.51-4.75,2.17-6.23,5.2c-5.36-2.14-10.34,1.83-15.31,5.8c-4.82,3.85-9.64,7.7-13.8,3.57c-0.88-0.88-1.8-1.19-2.66-1.05 c-0.05,0.01-0.09,0.01-0.14,0.02c-1.61,0.34-2.43,2.11-2.1,4.47c0.22,1.53,0.91,3.5,2.2,5.36C76.09,24.69,77.1,25.81,78.36,26.79 L78.36,26.79L78.36,26.79z"/><path class="st1" d="M74,36.55c-20.99,9.04-56.65,26.94-60.13,50.06c-0.56,3.71-0.07,7.17,1.63,10.33 c3.33,6.19,9.27,9.72,15.87,11.16c17.19,3.76,26.52-5.61,39.09-15.78C138.91,36.95,124.37-10.4,74,36.55L74,36.55z"/><path class="st2" d="M114.13,3.98c-1.62,0.35-3.3,1.79-4.11,4.6c-0.05,0.24-0.16,0.47-0.31,0.68c-0.62,0.88-1.83,1.09-2.71,0.47 c-3.81-2.69-8.3,0.9-12.79,4.48C88.7,18.61,83.2,23,77.37,19.23c0.26,0.67,0.63,1.39,1.12,2.1c2.12,3.08,6.55,5.9,14.41,4.32 c0.36-0.1,0.75-0.1,1.13,0.03c1.02,0.34,1.58,1.44,1.24,2.46c-0.74,2.24-1.04,4.37-0.91,6.38c0.1,1.57,0.46,3.09,1.07,4.56 c1.89-0.32,3.61-1.34,5.2-2.72c2.1-1.82,4.01-4.3,5.82-6.73v0c0.37-0.5,0.97-0.81,1.63-0.78c1.07,0.04,1.91,0.94,1.87,2.01 c-0.2,5.35,0.65,10,2.62,13.31c1.15,1.93,2.71,3.4,4.69,4.27c-0.42-1.8-0.63-3.67-0.71-5.6c-0.13-3.13,0.11-6.36,0.46-9.58 c0.18-1.73,0.58-3.4,0.97-5.08c0.85-3.61,1.7-7.22-0.07-10.01c-0.33-0.52-0.75-1.01-1.26-1.48c-0.53-0.49-1.16-0.93-1.89-1.34l0,0 c-0.13-0.07-0.25-0.16-0.36-0.26c-0.8-0.72-0.86-1.95-0.14-2.74c2.75-3.03,3.46-5.34,3.07-6.82c-0.16-0.61-0.56-1.07-1.07-1.34 C115.67,3.9,114.92,3.81,114.13,3.98L114.13,3.98L114.13,3.98z"/><path class="st3" d="M109.38,29.42c0.37,0.37,0.59,0.88,0.57,1.44c-0.2,5.35,0.65,10,2.62,13.31c1.15,1.93,2.71,3.4,4.69,4.27 c-0.42-1.8-0.63-3.67-0.71-5.6c-0.13-3.13,0.11-6.36,0.46-9.58c0.18-1.73,0.58-3.4,0.97-5.08c0.85-3.61,1.7-7.22-0.07-10.01 c-0.31-0.49-0.7-0.95-1.17-1.4C113.07,15.35,111.03,21.49,109.38,29.42L109.38,29.42z"/></g></svg>