<?xml version="1.0" encoding="utf-8"?><svg version="1.1" id="Layer_1" xmlns="http://www.w3.org/2000/svg" xmlns:xlink="http://www.w3.org/1999/xlink" x="0px" y="0px" viewBox="0 0 112.68 124.33" style="enable-background:new 0 0 112.68 124.33" xml:space="preserve"><style type="text/css">.st0{fill-rule:evenodd;clip-rule:evenodd;fill:#FFF5CC;stroke:#7F573C;stroke-width:2.4001;stroke-miterlimit:2.6131;} .st1{fill-rule:evenodd;clip-rule:evenodd;fill:#7F573C;} .st2{fill-rule:evenodd;clip-rule:evenodd;fill:#D1CAAE;}</style><g><path class="st0" d="M32.98,42.88c8.61-6.94,13.18-17.36,16.19-28.17c5.28-18.91,12.4-17.33,17.22,0.7 c2.78,10.41,6.06,19.83,10.69,26.54c9.26,13.41,42.63,19.46,32.51,42.54c-6.31,14.39-30.91,21.17-47.56,21.15 c3.97,3.97,6.81,8.46,8.57,13.41l-7.48-8.17l1.45,10.21l-5.56-8.95l-2.28,11.94l-2.64-12.4l-8.88,6.64l8.76-11.99 c-17.62-0.01-45.21-4.54-51.53-23.46C-4.6,61.81,19.99,53.34,32.98,42.88L32.98,42.88L32.98,42.88z"/><path class="st1" d="M55.81,2.64c6.6-4.15,10.09,15.52,11.41,20.03l-6.99,26.35L55.81,2.64L55.81,2.64z"/><path class="st2" d="M33.79,45.44c-9.58,17.63-27.5,39.97,1.01,58.4C-2.34,88.9,19.26,62.9,33.79,45.44L33.79,45.44L33.79,45.44z M82.43,48.32c16.9,17.84,22.26,38.54,1.74,53.2C113.18,88.1,103.77,60.76,82.43,48.32L82.43,48.32L82.43,48.32z M65.01,28.93 c2.91,7.14,5.83,14.31,8.91,21.36c4.37,10.01,13.66,24.66,10.69,35.27c-1.33,4.75-4.51,9.26-8.22,12.5 c-3.39,2.96-6.9,4.61-10.37,6.58C94.09,88,70.38,57.66,65.01,28.93L65.01,28.93L65.01,28.93z M47.43,45.2 c-4.72,16.97-16.05,43.5,7.68,59.87C23.63,95.04,40.78,56.32,47.43,45.2L47.43,45.2L47.43,45.2z"/></g></svg>