<svg xmlns="http://www.w3.org/2000/svg" shape-rendering="geometricPrecision" text-rendering="geometricPrecision" image-rendering="optimizeQuality" fill-rule="evenodd" clip-rule="evenodd" viewBox="0 0 500 511.55"><path fill="#662806" fill-rule="nonzero" d="M7.92 155.48c4.09-17.51 9.38-32.47 14.84-42.29l.08-.13.01-.02.04-.06.05-.1h.01l.05-.08.11-.17.03-.05.03-.04.06-.08.01-.02.05-.06.05-.08h.01l.53-.61.04-.05.03-.02.06-.07.03-.03.04-.04.08-.07.01-.01.06-.05.02-.02.05-.04.08-.07.04-.04.04-.02.07-.07.03-.03.05-.03.08-.06.01-.01.06-.05.16-.11.05-.03.02-.02C128.64 32.95 192.52-2.96 256.45.19c63.85 3.15 125.8 45.21 225.82 123.32l.09.07.1.07.04.03.04.04.1.07.08.07.06.05.03.03.09.07.02.03.06.06.07.06.02.02.08.08.03.03.05.06.08.06v.02l.08.08.04.04.05.05.06.08.01.01.08.1.03.02.04.06.07.09v.01l.15.19.06.08.01.02.06.11.02.01.1.16.09.14.02.02c4.54 7 8.21 17.39 10.84 29.8 2.64 12.52 4.29 27.34 4.76 42.88 1.95 64.21-20.09 120.24-55.08 168.34-43.87 60.33-108.18 108.11-170.83 143.81a7.032 7.032 0 0 1-7.16.07c-50.75-29.46-118.85-70.47-173.48-120.94C37.83 338.39-3.74 277.36.27 208.55c1.08-18.66 3.9-37.03 7.65-53.07z"/><path fill="#973603" d="M25.78 123.11c-8.72 19.4-16.46 52.19-18.41 85.87-7.72 132.44 162.06 236.8 262.97 295.4 110.8-63.14 226.73-164.21 222.44-305.81-.78-25.42-4.77-48.78-11.21-62.92-.37.21-.76.38-1.16.51-49.04 16.57-84.25 17.18-123.17 17.84-23.32.39-48.04.83-78.03 4.87-38.39 5.18-81.78 7.63-125.49 3.12-43.86-4.53-88.08-16.08-127.94-38.88z"/><path fill="#EFAB7E" d="M28.97 116.7C233.8-37.09 280.14-25.31 478.15 129.36c-77.54 26.2-120.23 11.64-199.86 22.4-75.86 10.24-171.3 9.68-249.32-35.06z"/><path fill="#752D06" d="M267.83 445.59c26.12-68.03 19.82-85.01 55.43-204.5-13.64 109.09 2.79 134.46-38.09 216.88 53.17-57.75 67.1-98.22 116.2-177.52-39.31 114.71-52.17 158.4-119.25 219.15l-17.1 7.72-11.47-7.72C180.2 427.05 126.21 367.09 98.59 277.89c42.55 77.2 97.17 120.56 151.91 180.08-41.06-89.43-59.95-114.46-74.12-216.88 32.54 117.3 61.93 134.64 91.45 204.5z"/></svg>