<?xml version="1.0" encoding="utf-8"?><svg version="1.1" id="Layer_1" xmlns="http://www.w3.org/2000/svg" xmlns:xlink="http://www.w3.org/1999/xlink" x="0px" y="0px" viewBox="0 0 120.12 123.79" style="enable-background:new 0 0 120.12 123.79" xml:space="preserve"><style type="text/css">.st0{fill-rule:evenodd;clip-rule:evenodd;fill:#BA8050;} .st1{fill:none;stroke:#69DA61;stroke-width:7.0834;stroke-linecap:round;stroke-linejoin:round;stroke-miterlimit:2.6131;} .st2{fill-rule:evenodd;clip-rule:evenodd;fill:#A8FFA9;} .st3{fill-rule:evenodd;clip-rule:evenodd;fill:#5AB161;}</style><g><path class="st0" d="M107.32,111.04c-28.86,28.86-95,5.09-104.8-34.99C-0.67,63,0.86,47.97,7.87,34.08l0.01-0.01 c7.01-13.89,18.18-24.05,30.58-29.24c12.47-5.22,26.18-5.42,38.17,0.63h0.01C108.85,21.73,137.57,80.79,107.32,111.04 L107.32,111.04L107.32,111.04z"/><path class="st1" d="M26.84,104.03c0.03,0.01,0.05,0.03,0.08,0.04c11.27,5.67,24.17,5.46,35.94,0.54 c11.85-4.96,22.54-14.69,29.26-28.02c6.73-13.33,8.2-27.71,5.15-40.18C94.25,24.03,86.75,13.52,75.49,7.83 c-0.03-0.01-0.05-0.03-0.08-0.04C64.14,2.12,51.24,2.32,39.47,7.25C27.64,12.2,16.96,21.91,10.23,35.22 c-0.01,0.03-0.03,0.06-0.04,0.09C3.48,48.62,2.01,62.98,5.06,75.44C8.09,87.83,15.59,98.33,26.84,104.03L26.84,104.03L26.84,104.03 z"/><path class="st2" d="M26.84,104.03c0.03,0.01,0.05,0.03,0.08,0.04c11.27,5.67,24.17,5.46,35.94,0.54 c11.85-4.96,22.54-14.69,29.26-28.02c6.73-13.33,8.2-27.71,5.15-40.18C94.25,24.03,86.75,13.52,75.49,7.83 c-0.03-0.01-0.05-0.03-0.08-0.04C64.14,2.12,51.24,2.32,39.47,7.25C27.64,12.2,16.96,21.91,10.23,35.22 c-0.01,0.03-0.03,0.06-0.04,0.09C3.48,48.62,2.01,62.98,5.06,75.44C8.09,87.83,15.59,98.33,26.84,104.03L26.84,104.03L26.84,104.03 z"/><path class="st3" d="M36.27,72.8c0.34-0.47,1-0.58,1.47-0.25c0.47,0.34,0.58,1,0.25,1.47l-4.65,6.51c-0.34,0.47-1,0.58-1.47,0.25 c-0.47-0.34-0.58-1-0.25-1.47L36.27,72.8L36.27,72.8L36.27,72.8z M43.14,71.84c-7.51-3.79-10.01-13.99-5.57-22.78 c4.44-8.79,14.12-12.84,21.64-9.05C66.72,43.8,69.22,54,64.78,62.79C60.34,71.58,50.65,75.64,43.14,71.84L43.14,71.84L43.14,71.84z M32.48,68.42c0.45-0.37,1.11-0.31,1.48,0.14c0.37,0.45,0.31,1.11-0.14,1.48l-5.8,4.77c-0.45,0.37-1.11,0.31-1.48-0.14 c-0.37-0.45-0.31-1.11,0.14-1.48L32.48,68.42L32.48,68.42L32.48,68.42z M29.95,63.21c0.53-0.24,1.15-0.01,1.39,0.52 c0.24,0.53,0.01,1.15-0.52,1.39l-6.14,2.8c-0.53,0.24-1.15,0.01-1.39-0.52c-0.24-0.53-0.01-1.15,0.52-1.39L29.95,63.21L29.95,63.21 L29.95,63.21z M28.86,57.52c0.57-0.1,1.12,0.29,1.21,0.86c0.1,0.57-0.29,1.12-0.86,1.21l-6.82,1.14c-0.57,0.1-1.12-0.29-1.21-0.86 c-0.1-0.57,0.29-1.12,0.86-1.21L28.86,57.52L28.86,57.52L28.86,57.52z M29.28,51.74c0.58,0.06,1,0.57,0.95,1.15 c-0.06,0.58-0.57,1-1.15,0.95l-5.94-0.57c-0.58-0.06-1-0.57-0.95-1.15c0.06-0.58,0.57-1,1.15-0.95L29.28,51.74L29.28,51.74 L29.28,51.74z M31.18,46.27c0.55,0.2,0.82,0.81,0.62,1.36c-0.2,0.55-0.81,0.82-1.36,0.62l-3.7-1.39c-0.03-0.01-0.05-0.02-0.08-0.03 L24.43,46c-0.54-0.2-0.82-0.81-0.62-1.35c0.2-0.54,0.81-0.82,1.35-0.62l2.23,0.83c0.03,0.01,0.06,0.02,0.09,0.03L31.18,46.27 L31.18,46.27L31.18,46.27z M34.42,41.47c0.47,0.34,0.58,1,0.24,1.47c-0.34,0.47-1,0.58-1.47,0.25l-5.02-3.59 c-0.47-0.34-0.58-1-0.24-1.47c0.34-0.47,1-0.58,1.47-0.25L34.42,41.47L34.42,41.47L34.42,41.47z M38.8,37.68 c0.37,0.45,0.31,1.11-0.14,1.48c-0.45,0.37-1.11,0.31-1.48-0.14l-1.97-2.39c-0.37-0.45-0.31-1.11,0.14-1.48 c0.45-0.37,1.11-0.31,1.48,0.14L38.8,37.68L38.8,37.68L38.8,37.68z M44.01,35.15c0.24,0.53,0.01,1.15-0.52,1.39 c-0.53,0.24-1.15,0.01-1.39-0.52l-2.88-6.34c-0.24-0.53-0.01-1.15,0.52-1.39c0.53-0.24,1.15-0.01,1.39,0.52L44.01,35.15 L44.01,35.15L44.01,35.15z M49.7,34.06c0.1,0.57-0.29,1.12-0.86,1.21c-0.57,0.1-1.12-0.29-1.21-0.86l-0.68-4.06 c-0.1-0.57,0.29-1.12,0.86-1.21c0.57-0.1,1.12,0.29,1.21,0.86L49.7,34.06L49.7,34.06L49.7,34.06z M55.48,34.48 c-0.06,0.58-0.57,1-1.15,0.95c-0.58-0.06-1-0.57-0.95-1.15l0.73-7.54c0.06-0.58,0.57-1,1.15-0.95c0.58,0.06,1,0.57,0.95,1.15 L55.48,34.48L55.48,34.48L55.48,34.48z M60.96,36.38c-0.2,0.55-0.81,0.82-1.36,0.62c-0.55-0.2-0.82-0.81-0.62-1.36l2.58-6.9 c0.2-0.55,0.81-0.82,1.36-0.62c0.55,0.2,0.82,0.81,0.62,1.36L60.96,36.38L60.96,36.38L60.96,36.38z M65.75,39.63 c-0.34,0.47-1,0.58-1.47,0.25c-0.47-0.34-0.58-1-0.25-1.47l4.41-6.18c0.34-0.47,1-0.58,1.47-0.25c0.47,0.34,0.58,1,0.24,1.47 L65.75,39.63L65.75,39.63L65.75,39.63z M69.54,44c-0.45,0.37-1.11,0.31-1.48-0.14c-0.37-0.45-0.31-1.11,0.14-1.48l4.81-3.96 c0.45-0.37,1.11-0.31,1.48,0.14c0.37,0.45,0.31,1.11-0.14,1.48L69.54,44L69.54,44L69.54,44z M72.07,49.22 c-0.53,0.24-1.15,0.01-1.39-0.52c-0.24-0.53-0.01-1.15,0.52-1.39l4.98-2.27c0.53-0.24,1.15-0.01,1.39,0.52 c0.24,0.53,0.01,1.15-0.52,1.39L72.07,49.22L72.07,49.22L72.07,49.22z M73.16,54.91c-0.57,0.1-1.12-0.29-1.21-0.86 c-0.1-0.57,0.29-1.12,0.86-1.21l5.85-0.98c0.57-0.1,1.12,0.29,1.21,0.86c0.1,0.57-0.29,1.12-0.86,1.21L73.16,54.91L73.16,54.91 L73.16,54.91z M72.75,60.68c-0.58-0.06-1-0.57-0.95-1.15c0.06-0.58,0.57-1,1.15-0.95l4.9,0.47c0.58,0.06,1,0.57,0.95,1.15 c-0.06,0.58-0.57,1-1.15,0.95L72.75,60.68L72.75,60.68L72.75,60.68z M70.85,66.16c-0.55-0.2-0.82-0.81-0.62-1.36 c0.2-0.55,0.81-0.82,1.36-0.62l6.98,2.61c0.55,0.2,0.82,0.81,0.62,1.36c-0.2,0.55-0.81,0.82-1.36,0.62L70.85,66.16L70.85,66.16 L70.85,66.16z M67.6,70.95c-0.47-0.34-0.58-1-0.25-1.47c0.34-0.47,1-0.58,1.47-0.25l3.39,2.42c0.47,0.34,0.58,1,0.25,1.47 c-0.34,0.47-1,0.58-1.47,0.24L67.6,70.95L67.6,70.95L67.6,70.95z M63.22,74.75c-0.37-0.45-0.31-1.11,0.14-1.48s1.11-0.31,1.48,0.14 l3.35,4.07c0.37,0.45,0.31,1.11-0.14,1.48c-0.45,0.37-1.11,0.31-1.48-0.14L63.22,74.75L63.22,74.75L63.22,74.75z M58.01,77.27 c-0.24-0.53-0.01-1.15,0.52-1.39c0.53-0.24,1.15-0.01,1.39,0.52l3.33,7.33c0.24,0.53,0.01,1.15-0.52,1.39 c-0.53,0.24-1.15,0.01-1.39-0.52L58.01,77.27L58.01,77.27L58.01,77.27z M52.32,78.37c-0.1-0.57,0.29-1.12,0.86-1.21 c0.57-0.1,1.12,0.29,1.21,0.86l1.27,7.63c0.1,0.57-0.29,1.12-0.86,1.21c-0.57,0.1-1.12-0.29-1.21-0.86L52.32,78.37L52.32,78.37 L52.32,78.37z M46.54,77.95c0.06-0.58,0.57-1,1.15-0.95c0.58,0.06,1,0.57,0.95,1.15l-0.71,7.31c-0.06,0.58-0.57,1-1.15,0.95 c-0.58-0.06-1-0.57-0.95-1.15L46.54,77.95L46.54,77.95L46.54,77.95z M41.07,76.05c0.2-0.55,0.81-0.82,1.36-0.62 c0.55,0.2,0.82,0.81,0.62,1.36l-2.66,7.11c-0.2,0.55-0.81,0.82-1.36,0.62c-0.55-0.2-0.82-0.81-0.62-1.36L41.07,76.05L41.07,76.05 L41.07,76.05z"/></g></svg>