<?xml version="1.0" encoding="UTF-8"?>
<!DOCTYPE svg PUBLIC "-//W3C//DTD SVG 1.1//EN" "http://www.w3.org/Graphics/SVG/1.1/DTD/svg11.dtd">
<!-- Creator: CorelDRAW 2021 (64-Bit) -->
<svg xmlns="http://www.w3.org/2000/svg" xml:space="preserve" width="497px" height="512px" version="1.1" shape-rendering="geometricPrecision" text-rendering="geometricPrecision" image-rendering="optimizeQuality" fill-rule="evenodd" clip-rule="evenodd"
viewBox="0 0 497 512.26"
 xmlns:xlink="http://www.w3.org/1999/xlink"
 xmlns:xodm="http://www.corel.com/coreldraw/odm/2003">
 <g id="Layer_x0020_1">
  <metadata id="CorelCorpID_0Corel-Layer"/>
  <path id="cherry-fruit.svg" fill="#54892D" d="M356.55 85.51c-5.67,-40.29 -25.36,-62.77 -53.41,-74.64 -28.96,-12.25 -58.6,-10.86 -89.35,-10.78 -21,0.06 -41.89,0.5 -62.72,1.14 6.37,21.52 16.93,41.16 31.88,58.84 7.31,8.65 15.44,16.68 24.25,23.85 35.62,29.01 90.48,46.59 132.86,25.36 3.81,-1.9 5.52,-2.86 8.02,-5.57 -39.63,-14.96 -69.68,-38.44 -95.57,-60.76 24.12,18.56 65.61,36.1 103.87,44.38l0.17 -1.82z"/>
  <path id="cherry-fruit.svg_0" fill="#333333" d="M361.09 264.42c-6.27,-22.36 -7.77,-47.3 -4.59,-71.51 5.68,-43.39 25.06,-85.41 55.07,-110.9l-0.01 0 0.89 -0.75c7.34,-6.18 8.29,-17.14 2.11,-24.49 -6.18,-7.34 -17.13,-8.29 -24.48,-2.11l-0.96 0.81 -0.08 0.06 0 -0.01c-12.86,10.91 -24.1,24.17 -33.58,39l-10.78 19.03c-1.68,3.37 -3.29,6.79 -4.8,10.26 -52.56,14.27 -100.93,34.21 -142.23,63.73 -24.81,17.72 -46.96,38.81 -65.82,64.08 11.35,3.48 21.47,9.66 30.11,17.92 16.18,-21.06 34.99,-38.75 55.93,-53.72 31.71,-22.66 68.5,-39.25 108.62,-51.86 -1.91,8.05 -3.4,16.19 -4.47,24.37 -4.19,31.99 -1.41,65.48 8.48,94.97 8.63,-8.67 18.9,-15.18 30.59,-18.88z"/>
  <path fill="#7C9425" d="M362.45 264c50.52,-14.9 107.67,27.95 127.64,95.69 19.96,67.74 -4.81,134.72 -55.34,149.62 -50.53,14.89 -107.67,-27.95 -127.64,-95.69 -19.97,-67.74 4.81,-134.73 55.34,-149.62zm-234.79 -13.53c51.19,12.42 79.19,78.13 62.53,146.76 -16.65,68.63 -71.65,114.19 -122.85,101.77 -51.19,-12.43 -79.19,-78.13 -62.53,-146.76 16.65,-68.63 71.66,-114.19 122.85,-101.77zm-68.47 90.59c-1.94,3.08 -6.01,4 -9.09,2.07 -3.08,-1.94 -4,-6.01 -2.07,-9.09 8.47,-13.49 19.09,-24.6 31.23,-32.42 11.85,-7.64 25.17,-12.15 39.38,-12.72 3.64,-0.14 6.7,2.69 6.84,6.33 0.14,3.63 -2.69,6.69 -6.32,6.84 -11.74,0.46 -22.83,4.25 -32.77,10.65 -10.51,6.77 -19.76,16.48 -27.2,28.34zm288.09 32.07c-0.12,3.63 -3.18,6.47 -6.81,6.35 -3.64,-0.13 -6.48,-3.18 -6.35,-6.82 0.57,-15.9 4.2,-30.83 10.79,-43.68 6.45,-12.6 15.72,-23.19 27.69,-30.77 3.08,-1.95 7.16,-1.04 9.11,2.04 1.95,3.07 1.04,7.16 -2.04,9.11 -9.96,6.31 -17.67,15.12 -23.04,25.6 -5.7,11.11 -8.85,24.16 -9.35,38.17z"/>
 </g>
</svg>
