<?xml version="1.0" encoding="utf-8"?><svg version="1.1" id="Layer_1" xmlns="http://www.w3.org/2000/svg" xmlns:xlink="http://www.w3.org/1999/xlink" x="0px" y="0px" viewBox="0 0 105 122.88" style="enable-background:new 0 0 105 122.88" xml:space="preserve"><style type="text/css">.st0{fill:#B9126C;} .st1{fill:#B54632;} .st2{fill:#DD64A9;stroke:#DD64A9;stroke-width:0.216;stroke-miterlimit:2.6131;} .st3{fill:#DD64A9;} .st4{fill:#D65A96;} .st5{fill-rule:evenodd;clip-rule:evenodd;fill:#B9126C;} .st6{fill-rule:evenodd;clip-rule:evenodd;fill:#92C83E;}</style><g><path class="st0" d="M43.58,29.9c9.11-18.03,22.44,4.53,17.76-0.02c10.73,1.47,20.44,5.55,27.95,11.37 C98.96,48.75,105,59.14,105,70.58c0,11.42-6.18,21.78-15.97,29.27c-4.38,3.35-9.5,6.14-15.1,8.17l-0.85-0.32 c-12.59,2.76-25.92,3.01-39.75,1.55l0.1-0.04c-1.19-0.36-2.36-0.75-3.5-1.17c-0.25-0.05-0.51-0.15-0.73-0.28 c-5.11-1.97-9.76-4.59-13.76-7.71C5.9,92.6,0,82.27,0,70.8c0-11.46,6.06-21.9,15.75-29.46C23.23,35.51,32.89,31.4,43.58,29.9 L43.58,29.9L43.58,29.9z"/><path class="st1" d="M68.44,108.02c-0.71,0.35-1.42,0.67-2.15,0.98l2.31,1.39c0.97,0.59,1.41,2.12,0.98,3.45 c-0.43,1.32-1.56,1.92-2.54,1.34L60.1,111l-0.02-0.01c-0.19,0.04-0.38,0.09-0.57,0.12l4.14,6.7c0.68,1.11,0.57,2.75-0.24,3.68 c-0.82,0.93-2.03,0.78-2.71-0.32l-5.81-9.4c-0.1,0.01-0.19,0.02-0.29,0.02v11.09h-3.85V113l-5.43,8.41 c-0.7,1.08-1.91,1.2-2.71,0.24c-0.8-0.95-0.88-2.6-0.18-3.68l4.21-6.52c-0.36-0.05-0.72-0.12-1.07-0.18l-6.43,3.27 c-1,0.51-2.1-0.18-2.47-1.54c-0.37-1.35,0.13-2.85,1.13-3.36l0.77-0.39c10.17,1.46,19.98,1.21,29.25-1.55L68.44,108.02 L68.44,108.02z"/><path class="st2" d="M21.52,43.6c-0.88,0.59-1.74,1.21-2.57,1.86C10.51,52.04,5.24,61.03,5.24,70.8c0,9.78,5.12,18.67,13.41,25.13 c1.42,1.11,2.94,2.16,4.54,3.12c-5.39-9.57-8.28-19.7-8.39-29.64C14.71,60.45,16.88,51.66,21.52,43.6L21.52,43.6L21.52,43.6z"/><path class="st3" d="M49.88,34.59c-0.91,0.04-1.81,0.1-2.71,0.17c-8.71,10.98-13.05,22.38-12.94,34.19 c0.1,12.01,4.8,24.55,14.14,37.59c0.5,0.03,1,0.05,1.51,0.07V34.59L49.88,34.59L49.88,34.59z"/><path class="st3" d="M57.59,34.75c-0.82-0.07-1.64-0.12-2.47-0.16v71.96c0.45-0.03,0.89-0.05,1.34-0.09 c9.36-13.08,14.03-25.65,14.1-37.67C70.61,57.03,66.27,45.67,57.59,34.75L57.59,34.75L57.59,34.75z"/><path class="st4" d="M86.09,45.39c-1.09-0.85-2.23-1.65-3.42-2.41c4.68,7.98,6.95,16.67,6.98,25.55 c0.04,10.09-2.79,20.41-8.19,30.14c1.54-0.93,3.01-1.92,4.4-2.99c8.52-6.52,13.9-15.42,13.9-25.12 C99.76,60.83,94.5,51.91,86.09,45.39L86.09,45.39L86.09,45.39z"/><path class="st4" d="M64.88,35.81c7.31,10.57,10.95,21.58,10.89,32.99c-0.06,11.89-4.16,24.14-12.34,36.71 c3.19-0.62,6.27-1.49,9.2-2.59c0.06-0.12,0.13-0.24,0.21-0.36c7.59-10.8,11.63-22.6,11.58-34.01c-0.05-10.85-3.8-21.39-11.71-30.45 c-0.02-0.02-0.03-0.04-0.05-0.06C70.17,37.13,67.57,36.39,64.88,35.81L64.88,35.81L64.88,35.81z"/><path class="st2" d="M41.51,105.75c-8.24-12.59-12.39-24.85-12.5-36.76c-0.11-11.46,3.53-22.5,10.84-33.1 c-2.82,0.62-5.55,1.44-8.14,2.44c-8.07,9.21-11.8,19.99-11.68,31.04c0.11,11.4,4.32,23.16,12.06,33.89 C35.06,104.34,38.22,105.18,41.51,105.75L41.51,105.75L41.51,105.75z"/><path class="st5" d="M58.65,30.96C62.78,30.96,66.18,28.03,58.65,30.96L58.65,30.96z M57.41,1.3c-1.34-1.25-3.04-1.55-4.6-1.1 c-1.55,0.44-2.98,1.6-3.84,3.25c-0.86,1.66-1.15,3.79-0.4,6.16c-1.25-0.19-2.3,0.21-3.1,0.98c-0.59,0.57-1.04,1.33-1.31,2.21 c-0.27,0.85-0.38,1.79-0.31,2.75c0.13,1.9,0.95,3.89,2.6,5.25c-0.32,0.28-0.6,0.61-0.84,0.99c-0.9,1.39-1.14,2.67-0.88,3.88l0,0 c0.25,1.15,0.94,2.15,1.94,3.09c0.88,0.82,1.99,1.51,3.31,2.21h8.05c2.6-7.5,6.25-13.57,0.47-14.6C59.43,11.7,61.58,5.18,57.41,1.3 L57.41,1.3z"/><path class="st6" d="M58.08,11C58,11.2,57.97,11.42,58,11.63c-0.13,0.92-0.3,1.81-0.53,2.68c-0.24,0.95-0.54,1.85-0.89,2.7 c-0.21,0.5-0.04,1.11,0.37,1.36c0.14,0.08,0.3,0.12,0.44,0.11c1.08-0.06,1.95,0.06,2.37,0.57c0.4,0.48,0.46,1.48-0.02,3.27 c0,0.02-0.01,0.04-0.01,0.06l0,0c-0.46,2.17-1,3.95-1.64,5.36c-0.56,1.24-1.2,2.21-1.92,2.92h-0.21 c-1.17-2.84-1.88-10.31-2.58-17.98c-0.87,5.11-1.35,11.97-0.59,17.47c-2.11-1.04-3.85-1.92-4.98-2.98c-0.72-0.68-1.21-1.33-1.35-2 v-0.01l0,0c-0.13-0.59,0.04-1.29,0.58-2.13c0.19-0.3,0.42-0.54,0.68-0.74c0.27-0.21,0.58-0.38,0.93-0.5 c0.45-0.16,0.7-0.72,0.57-1.25c-0.08-0.32-0.27-0.55-0.51-0.66l0,0c-2-0.91-2.95-2.75-3.07-4.49c-0.05-0.67,0.02-1.31,0.2-1.88 c0.17-0.54,0.44-1,0.79-1.34c0.73-0.7,1.88-0.85,3.37,0.03c0.41,0.25,0.92,0.04,1.13-0.46c0.14-0.34,0.11-0.73-0.06-1.02l0,0 c-1.42-2.49-1.35-4.68-0.55-6.22c0.62-1.19,1.66-2.03,2.79-2.35c1.11-0.31,2.28-0.12,3.19,0.73C57.79,4.1,58.6,6.64,58.08,11 L58.08,11L58.08,11z"/></g></svg>