<?xml version="1.0" encoding="utf-8"?><svg version="1.1" id="Layer_1" xmlns="http://www.w3.org/2000/svg" xmlns:xlink="http://www.w3.org/1999/xlink" x="0px" y="0px" viewBox="0 0 122.79 122.88" style="enable-background:new 0 0 122.79 122.88" xml:space="preserve"><style type="text/css">.st0{fill-rule:evenodd;clip-rule:evenodd;fill:#8B5016;} .st1{fill-rule:evenodd;clip-rule:evenodd;fill:#62CD4D;} .st2{fill-rule:evenodd;clip-rule:evenodd;fill:#A0E557;} .st3{clip-path:url(#SVGID_2_);fill-rule:evenodd;clip-rule:evenodd;fill:#FFC66C;} .st4{clip-path:url(#SVGID_2_);fill-rule:evenodd;clip-rule:evenodd;fill:#FFCF7D;} .st5{clip-path:url(#SVGID_2_);fill-rule:evenodd;clip-rule:evenodd;fill:#FFCF7C;} .st6{clip-path:url(#SVGID_2_);fill-rule:evenodd;clip-rule:evenodd;fill:#FFCE7C;} .st7{clip-path:url(#SVGID_2_);fill-rule:evenodd;clip-rule:evenodd;fill:#FFCE7B;} .st8{clip-path:url(#SVGID_2_);fill-rule:evenodd;clip-rule:evenodd;fill:#FFCE7A;} .st9{clip-path:url(#SVGID_2_);fill-rule:evenodd;clip-rule:evenodd;fill:#FFCD7A;} .st10{clip-path:url(#SVGID_2_);fill-rule:evenodd;clip-rule:evenodd;fill:#FFCD79;} .st11{clip-path:url(#SVGID_2_);fill-rule:evenodd;clip-rule:evenodd;fill:#FFCD78;} .st12{clip-path:url(#SVGID_2_);fill-rule:evenodd;clip-rule:evenodd;fill:#FFCC78;} .st13{clip-path:url(#SVGID_2_);fill-rule:evenodd;clip-rule:evenodd;fill:#FFCC77;} .st14{clip-path:url(#SVGID_2_);fill-rule:evenodd;clip-rule:evenodd;fill:#FFCC76;} .st15{clip-path:url(#SVGID_2_);fill-rule:evenodd;clip-rule:evenodd;fill:#FFCB76;} .st16{clip-path:url(#SVGID_2_);fill-rule:evenodd;clip-rule:evenodd;fill:#FFCB75;} .st17{clip-path:url(#SVGID_2_);fill-rule:evenodd;clip-rule:evenodd;fill:#FFCA74;} .st18{clip-path:url(#SVGID_2_);fill-rule:evenodd;clip-rule:evenodd;fill:#FFCA73;} .st19{clip-path:url(#SVGID_2_);fill-rule:evenodd;clip-rule:evenodd;fill:#FFC973;} .st20{clip-path:url(#SVGID_2_);fill-rule:evenodd;clip-rule:evenodd;fill:#FFC972;} .st21{clip-path:url(#SVGID_2_);fill-rule:evenodd;clip-rule:evenodd;fill:#FFC971;} .st22{clip-path:url(#SVGID_2_);fill-rule:evenodd;clip-rule:evenodd;fill:#FFC871;} .st23{clip-path:url(#SVGID_2_);fill-rule:evenodd;clip-rule:evenodd;fill:#FFC870;} .st24{clip-path:url(#SVGID_2_);fill-rule:evenodd;clip-rule:evenodd;fill:#FFC86F;} .st25{clip-path:url(#SVGID_2_);fill-rule:evenodd;clip-rule:evenodd;fill:#FFC76F;} .st26{clip-path:url(#SVGID_2_);fill-rule:evenodd;clip-rule:evenodd;fill:#FFC76E;} .st27{clip-path:url(#SVGID_2_);fill-rule:evenodd;clip-rule:evenodd;fill:#FFC76D;} .st28{clip-path:url(#SVGID_2_);fill-rule:evenodd;clip-rule:evenodd;fill:#FFC66D;}</style><g><path class="st0" d="M63.11,33.37c-7.06-1.41-13.95-0.49-20.59,2.08c-7.35,2.84-14.34,7.69-20.83,13.58 c-0.43,0.4-0.91,0.83-1.42,1.32c-0.45,0.43-0.92,0.88-1.39,1.35C12.6,57.96,7.34,64.65,3.97,71.84c-3.4,7.29-4.85,15.08-3.44,23.43 c1.01,5.98,3.5,11.27,7.07,15.57c3.66,4.41,8.46,7.78,13.98,9.78c7.41,2.7,14.34,2.88,21.13,1.1c6.72-1.77,13.24-5.45,19.94-10.5 c1.92-1.46,3.77-2.96,5.53-4.49c1.75-1.54,3.47-3.15,5.14-4.87c1.94-1.99,3.78-4.06,5.51-6.22c1.74-2.17,3.36-4.43,4.88-6.8 c0.61-0.96,1.19-1.89,1.72-2.81c0.55-0.95,1.08-1.9,1.58-2.87c0.02-0.03,0.04-0.07,0.05-0.1c2.81-5.78,4.12-11.3,4.02-16.62 c-0.03-2.34-0.34-4.63-0.9-6.87c3.37,0.2,6.69,0.68,9.98,1.46c3.62,0.86,7.15,2.09,10.58,3.72c2.09,0.99,4.59,0.11,5.58-1.98 c0.3-0.62,0.43-1.29,0.41-1.93c0.12-4.74-2.28-8.61-6.41-11.89c-1-0.8-2.12-1.56-3.32-2.29c7.2-2.05,13.35-4.47,15.29-8.05 c0.96-1.77,0.51-3.93-0.97-5.18l0,0c-3.44-2.9-7.83-4.12-12.87-4.19c-0.78-0.01-1.57,0-2.38,0.05c0.74-0.89,1.43-1.78,2.09-2.66 c3.15-4.27,5.28-8.57,5.64-12.95c0.19-2.3-1.52-4.33-3.83-4.52c-0.45-0.04-0.9,0-1.31,0.1c-3.61,0.67-7.6,2.77-11.73,5.77 c-1.07,0.78-2.14,1.61-3.23,2.5c0.02-0.91,0.01-1.8-0.03-2.68c-0.22-4.75-1.35-8.98-3.35-12.66c-1.1-2.02-3.64-2.77-5.66-1.67 c-0.47,0.25-0.87,0.59-1.19,0.97l0,0c-2.83,3.35-4.94,7.51-6.55,12.22c-0.17,0.51-0.34,1.03-0.51,1.55 c-0.38-0.56-0.78-1.1-1.2-1.62c-3.16-3.93-7.18-6.54-11.93-7.38c-2.28-0.4-4.45,1.13-4.84,3.4c-0.13,0.74-0.06,1.47,0.18,2.12 c0.75,2.9,2.38,11.13,3.57,17.1C62.49,30.53,62.79,32.05,63.11,33.37L63.11,33.37z"/><path class="st1" d="M89.11,55.33c8.18,0.33,16.01,2.1,23.41,5.63c0.35-6.72-7.28-11.45-17.79-15.45 c10.31-2.61,21.89-5.25,23.88-8.91c-5.26-4.43-14-3.73-24-1.18c7.68-7.67,14.42-15.07,15-22.11c-6.03,1-14.01,7.42-21.83,15.28 c2.68-10.01,2.23-18.23-1.14-24.42c-4.93,5.84-7.47,14.82-9.07,24.91c-2.13-10.1-7.48-17.39-15.03-18.71 c1.28,4.66,4.97,24.41,5.13,24.49c10.31,4.39,18.17,10.46,20.69,20.06L89.11,55.33L89.11,55.33z"/><path class="st2" d="M87.24,51.53c5.96,0.24,11.65,1.43,17.04,4c0.25-4.89-5.3-8.33-12.95-11.24c7.5-1.9,15.93-3.82,17.38-6.48 c-3.82-3.23-10.19-2.71-17.46-0.86c5.59-5.58,10.5-10.97,10.92-16.09c-4.39,0.73-10.19,5.4-15.89,11.12 c1.95-7.28,1.62-13.27-0.83-17.77c-3.58,4.25-5.43,10.78-6.6,18.13c-1.55-7.35-5.44-12.65-10.94-13.62 c0.93,3.39,3.62,17.94,3.73,18C78.24,39.34,86.11,47.88,87.24,51.53L87.24,51.53z"/><g><defs><path id="SVGID_1_" d="M40.14,114.13l1.23-14.84l-14.84,1.23l-1.23,14.84L40.14,114.13L40.14,114.13L40.14,114.13z M70.83,40.17 l-1.54,0.13l-1.23,14.84l14.84-1.23l0.13-1.54c-0.68-1.11-1.43-2.22-2.25-3.31c-1.08-1.44-2.25-2.82-3.51-4.17 c-2.03-1.86-4.14-3.41-6.33-4.66L70.83,40.17L70.83,40.17L70.83,40.17z M86.54,60.29l-1.01,12.3l1.57-0.13 c0.33-1.83,0.46-3.61,0.43-5.38C87.5,64.78,87.17,62.52,86.54,60.29L86.54,60.29L86.54,60.29z M86.05,76.71l-0.86,0.07l0,0 l-0.24,2.91C85.36,78.69,85.73,77.7,86.05,76.71L86.05,76.71L86.05,76.71z M80.06,88.46l0.94-11.33l-14.84,1.23l-1.23,14.84 l12.5-1.03C78.34,90.96,79.22,89.72,80.06,88.46L80.06,88.46L80.06,88.46z M73.77,96.62l-9.19,0.75l-0.72,8.75 c0.76-0.63,1.51-1.26,2.25-1.91c1.73-1.51,3.36-3.05,4.9-4.63C71.96,98.63,72.88,97.64,73.77,96.62L73.77,96.62L73.77,96.62z M59.42,109.57l0.98-11.84l-14.84,1.23l-1.23,14.84l10.03-0.83C56.04,111.93,57.72,110.8,59.42,109.57L59.42,109.57L59.42,109.57 z M39.76,118.87l0.05-0.54l-9.14,0.75C33.77,119.48,36.78,119.39,39.76,118.87L39.76,118.87L39.76,118.87z M19.93,115.8l1.18-0.1 l1.23-14.84L7.5,102.09l-0.13,1.6c0.91,1.64,1.96,3.19,3.14,4.61C13.08,111.41,16.29,113.95,19.93,115.8L19.93,115.8L19.93,115.8 z M4.01,93.87L4.87,83.4l0,0l-0.96,0.09C3.43,86.84,3.43,90.29,4.01,93.87L4.01,93.87L4.01,93.87z M4.82,79.24l0.41-0.04 l0.15-1.82C5.16,78.01,4.98,78.62,4.82,79.24L4.82,79.24L4.82,79.24z M16.13,59.41l9.69-0.8l0.79-9.56 c-0.93,0.78-1.85,1.58-2.76,2.42c-0.49,0.44-0.94,0.86-1.34,1.25c-0.45,0.43-0.9,0.86-1.31,1.28 C19.4,55.76,17.71,57.57,16.13,59.41L16.13,59.41L16.13,59.41z M31.05,45.57l-1.04,12.7l14.84-1.23l1.23-14.84l-11.45,0.95 C33.42,43.91,32.23,44.72,31.05,45.57L31.05,45.57L31.05,45.57z M44.9,38.14l1.51-0.13l0.03-0.37 C45.93,37.8,45.42,37.97,44.9,38.14L44.9,38.14L44.9,38.14z M50.69,36.68l-0.08,0.99l10.89-0.9 C57.83,36.09,54.23,36.1,50.69,36.68L50.69,36.68L50.69,36.68z M63.53,59.66l-14.84,1.23l-1.23,14.84L62.3,74.5l0.58-6.98 L63.53,59.66L63.53,59.66L63.53,59.66z M65.1,40.64l-14.84,1.23l-1.23,14.84l14.84-1.23L65.1,40.64L65.1,40.64L65.1,40.64z M82.56,58.1l-14.84,1.23l-1.23,14.84l14.84-1.23L82.56,58.1L82.56,58.1L82.56,58.1z M61.96,78.69l-14.84,1.23L45.9,94.76 l14.84-1.23L61.96,78.69L61.96,78.69L61.96,78.69z M43.28,76.07l1.23-14.84l-14.84,1.23l-0.65,7.85l-0.58,6.98L43.28,76.07 L43.28,76.07L43.28,76.07z M25.47,62.8l-12.9,1.06c-0.77,1.05-1.51,2.13-2.19,3.2l-0.97,11.8l14.84-1.23L25.47,62.8L25.47,62.8 L25.47,62.8z M42.93,80.27L28.1,81.49l-1.23,14.83l14.84-1.23L42.93,80.27L42.93,80.27L42.93,80.27z M23.9,81.83L9.07,83.06 L7.84,97.9l14.84-1.23L23.9,81.83L23.9,81.83L23.9,81.83z"/></defs><clipPath id="SVGID_2_"><use xlink:href="#SVGID_1_" style="overflow:visible"/></clipPath><polygon class="st3" points="3.43,36.09 87.56,36.09 87.56,119.48 3.43,119.48 3.43,36.09"/><path class="st4" d="M46.04,77.79c0-0.27-0.22-0.49-0.49-0.49c-0.27,0-0.49,0.22-0.49,0.49s0.22,0.49,0.49,0.49 C45.82,78.28,46.04,78.06,46.04,77.79L46.04,77.79z"/><path class="st4" d="M45.88,77.79c0,0.18-0.15,0.32-0.33,0.32c-0.18,0-0.33-0.15-0.33-0.32c0-0.18,0.15-0.32,0.33-0.32 C45.73,77.47,45.88,77.61,45.88,77.79L45.88,77.79z M46.37,77.79c0-0.45-0.37-0.81-0.82-0.81c-0.45,0-0.82,0.36-0.82,0.81 c0,0.45,0.37,0.81,0.82,0.81C46,78.6,46.37,78.24,46.37,77.79L46.37,77.79z"/><path class="st4" d="M46.21,77.79c0,0.36-0.29,0.65-0.66,0.65c-0.36,0-0.66-0.29-0.66-0.65c0-0.36,0.29-0.65,0.66-0.65 C45.91,77.14,46.21,77.43,46.21,77.79L46.21,77.79z M46.7,77.79c0-0.63-0.51-1.14-1.15-1.14c-0.63,0-1.15,0.51-1.15,1.14 c0,0.63,0.51,1.14,1.15,1.14C46.19,78.93,46.7,78.42,46.7,77.79L46.7,77.79z"/><path class="st4" d="M46.54,77.79c0,0.54-0.44,0.97-0.98,0.97c-0.54,0-0.98-0.44-0.98-0.97c0-0.54,0.44-0.97,0.98-0.97 C46.1,76.82,46.54,77.25,46.54,77.79L46.54,77.79z M47.03,77.79c0-0.81-0.66-1.46-1.48-1.46c-0.81,0-1.48,0.65-1.48,1.46 c0,0.81,0.66,1.46,1.48,1.46C46.37,79.25,47.03,78.6,47.03,77.79L47.03,77.79z"/><path class="st5" d="M46.86,77.79c0,0.72-0.59,1.3-1.31,1.3c-0.72,0-1.31-0.58-1.31-1.3c0-0.72,0.59-1.3,1.31-1.3 C46.28,76.49,46.86,77.07,46.86,77.79L46.86,77.79z M47.36,77.79c0-0.99-0.81-1.78-1.8-1.78s-1.8,0.8-1.8,1.78 c0,0.99,0.81,1.78,1.8,1.78S47.36,78.78,47.36,77.79L47.36,77.79z"/><path class="st5" d="M47.19,77.79c0,0.9-0.73,1.62-1.64,1.62c-0.91,0-1.64-0.73-1.64-1.62c0-0.9,0.73-1.62,1.64-1.62 C46.46,76.17,47.19,76.89,47.19,77.79L47.19,77.79z M47.68,77.79c0-1.17-0.95-2.11-2.13-2.11s-2.13,0.94-2.13,2.11 c0,1.17,0.95,2.11,2.13,2.11S47.68,78.96,47.68,77.79L47.68,77.79z"/><path class="st5" d="M47.52,77.79c0,1.08-0.88,1.95-1.97,1.95c-1.09,0-1.97-0.87-1.97-1.95c0-1.08,0.88-1.95,1.97-1.95 C46.64,75.84,47.52,76.72,47.52,77.79L47.52,77.79z M48.01,77.79c0-1.34-1.1-2.43-2.46-2.43c-1.36,0-2.46,1.09-2.46,2.43 c0,1.34,1.1,2.43,2.46,2.43C46.91,80.22,48.01,79.13,48.01,77.79L48.01,77.79z"/><path class="st5" d="M47.85,77.79c0,1.25-1.03,2.27-2.3,2.27c-1.27,0-2.3-1.02-2.3-2.27s1.03-2.27,2.3-2.27 C46.82,75.52,47.85,76.54,47.85,77.79L47.85,77.79z M48.34,77.79c0-1.52-1.25-2.76-2.79-2.76c-1.54,0-2.79,1.24-2.79,2.76 c0,1.52,1.25,2.76,2.79,2.76C47.09,80.55,48.34,79.31,48.34,77.79L48.34,77.79z"/><path class="st6" d="M48.18,77.79c0,1.43-1.17,2.6-2.62,2.6c-1.45,0-2.62-1.16-2.62-2.6c0-1.43,1.17-2.6,2.62-2.6 C47,75.19,48.18,76.36,48.18,77.79L48.18,77.79z M48.67,77.79c0-1.7-1.4-3.08-3.12-3.08c-1.72,0-3.12,1.38-3.12,3.08 c0,1.7,1.4,3.08,3.12,3.08C47.27,80.87,48.67,79.49,48.67,77.79L48.67,77.79z"/><path class="st6" d="M48.5,77.79c0,1.61-1.32,2.92-2.95,2.92c-1.63,0-2.95-1.31-2.95-2.92c0-1.61,1.32-2.92,2.95-2.92 C47.18,74.87,48.5,76.18,48.5,77.79L48.5,77.79z M49,77.79c0-1.88-1.54-3.41-3.44-3.41c-1.9,0-3.44,1.53-3.44,3.41 c0,1.88,1.54,3.41,3.44,3.41C47.45,81.2,49,79.67,49,77.79L49,77.79z"/><path class="st6" d="M48.83,77.79c0,1.79-1.47,3.25-3.28,3.25c-1.81,0-3.28-1.45-3.28-3.25c0-1.79,1.47-3.25,3.28-3.25 C47.36,74.55,48.83,76,48.83,77.79L48.83,77.79z M49.32,77.79c0-2.06-1.69-3.73-3.77-3.73c-2.08,0-3.77,1.67-3.77,3.73 c0,2.06,1.69,3.73,3.77,3.73C47.63,81.52,49.32,79.85,49.32,77.79L49.32,77.79z"/><path class="st6" d="M49.16,77.79c0,1.97-1.62,3.57-3.61,3.57c-1.99,0-3.61-1.6-3.61-3.57c0-1.97,1.62-3.57,3.61-3.57 C47.54,74.22,49.16,75.82,49.16,77.79L49.16,77.79z M49.65,77.79c0-2.24-1.84-4.06-4.1-4.06c-2.26,0-4.1,1.82-4.1,4.06 c0,2.24,1.84,4.06,4.1,4.06C47.82,81.85,49.65,80.03,49.65,77.79L49.65,77.79z"/><path class="st7" d="M49.49,77.79c0,2.15-1.76,3.89-3.94,3.89s-3.94-1.74-3.94-3.89c0-2.15,1.76-3.89,3.94-3.89 S49.49,75.64,49.49,77.79L49.49,77.79z M49.98,77.79c0-2.42-1.98-4.38-4.43-4.38c-2.45,0-4.43,1.96-4.43,4.38 c0,2.42,1.98,4.38,4.43,4.38C48,82.17,49.98,80.21,49.98,77.79L49.98,77.79z"/><path class="st7" d="M49.82,77.79c0,2.33-1.91,4.22-4.26,4.22c-2.36,0-4.26-1.89-4.26-4.22s1.91-4.22,4.26-4.22 C47.91,73.57,49.82,75.46,49.82,77.79L49.82,77.79z M50.31,77.79c0-2.6-2.13-4.71-4.76-4.71c-2.63,0-4.76,2.11-4.76,4.71 c0,2.6,2.13,4.71,4.76,4.71C48.18,82.5,50.31,80.39,50.31,77.79L50.31,77.79z"/><path class="st7" d="M50.14,77.79c0,2.51-2.06,4.54-4.59,4.54c-2.54,0-4.59-2.03-4.59-4.54c0-2.51,2.06-4.54,4.59-4.54 C48.09,73.25,50.14,75.28,50.14,77.79L50.14,77.79z M50.64,77.79c0-2.78-2.28-5.03-5.08-5.03c-2.81,0-5.08,2.25-5.08,5.03 c0,2.78,2.28,5.03,5.08,5.03C48.36,82.82,50.64,80.57,50.64,77.79L50.64,77.79z"/><path class="st7" d="M50.47,77.79c0,2.69-2.2,4.87-4.92,4.87c-2.72,0-4.92-2.18-4.92-4.87c0-2.69,2.2-4.87,4.92-4.87 C48.27,72.92,50.47,75.1,50.47,77.79L50.47,77.79z M50.96,77.79c0-2.96-2.42-5.35-5.41-5.35c-2.99,0-5.41,2.4-5.41,5.35 c0,2.96,2.42,5.35,5.41,5.35C48.54,83.14,50.96,80.75,50.96,77.79L50.96,77.79z"/><path class="st7" d="M50.8,77.79c0,2.87-2.35,5.19-5.25,5.19c-2.9,0-5.25-2.32-5.25-5.19c0-2.87,2.35-5.19,5.25-5.19 C48.45,72.6,50.8,74.92,50.8,77.79L50.8,77.79z M51.29,77.79c0-3.14-2.57-5.68-5.74-5.68s-5.74,2.54-5.74,5.68 c0,3.14,2.57,5.68,5.74,5.68S51.29,80.93,51.29,77.79L51.29,77.79z"/><path class="st7" d="M51.13,77.79c0,3.05-2.5,5.52-5.58,5.52c-3.08,0-5.58-2.47-5.58-5.52c0-3.05,2.5-5.52,5.58-5.52 C48.63,72.27,51.13,74.74,51.13,77.79L51.13,77.79z M51.62,77.79c0-3.32-2.72-6-6.07-6c-3.35,0-6.07,2.69-6.07,6 c0,3.32,2.72,6,6.07,6C48.9,83.79,51.62,81.11,51.62,77.79L51.62,77.79z"/><path class="st7" d="M51.46,77.79c0,3.23-2.64,5.84-5.9,5.84c-3.26,0-5.9-2.62-5.9-5.84c0-3.23,2.64-5.84,5.9-5.84 C48.81,71.95,51.46,74.56,51.46,77.79L51.46,77.79z M51.95,77.79c0-3.49-2.86-6.33-6.4-6.33c-3.53,0-6.4,2.83-6.4,6.33 c0,3.49,2.86,6.33,6.4,6.33C49.08,84.12,51.95,81.29,51.95,77.79L51.95,77.79z"/><path class="st8" d="M51.78,77.79c0,3.41-2.79,6.17-6.23,6.17c-3.44,0-6.23-2.76-6.23-6.17c0-3.41,2.79-6.17,6.23-6.17 C48.99,71.62,51.78,74.39,51.78,77.79L51.78,77.79z M52.28,77.79c0-3.67-3.01-6.65-6.72-6.65c-3.71,0-6.72,2.98-6.72,6.65 c0,3.67,3.01,6.65,6.72,6.65C49.27,84.44,52.28,81.46,52.28,77.79L52.28,77.79z"/><path class="st8" d="M52.11,77.79c0,3.58-2.94,6.49-6.56,6.49c-3.62,0-6.56-2.91-6.56-6.49s2.94-6.49,6.56-6.49 C49.17,71.3,52.11,74.21,52.11,77.79L52.11,77.79z M52.6,77.79c0-3.85-3.16-6.98-7.05-6.98c-3.89,0-7.05,3.12-7.05,6.98 c0,3.85,3.16,6.98,7.05,6.98C49.45,84.77,52.6,81.64,52.6,77.79L52.6,77.79z"/><path class="st8" d="M52.44,77.79c0,3.76-3.08,6.81-6.89,6.81c-3.8,0-6.89-3.05-6.89-6.81c0-3.76,3.08-6.81,6.89-6.81 C49.36,70.98,52.44,74.03,52.44,77.79L52.44,77.79z M52.93,77.79c0-4.03-3.3-7.3-7.38-7.3c-4.08,0-7.38,3.27-7.38,7.3 c0,4.03,3.3,7.3,7.38,7.3C49.63,85.09,52.93,81.82,52.93,77.79L52.93,77.79z"/><path class="st9" d="M52.77,77.79c0,3.94-3.23,7.14-7.22,7.14c-3.99,0-7.22-3.2-7.22-7.14c0-3.94,3.23-7.14,7.22-7.14 C49.54,70.65,52.77,73.85,52.77,77.79L52.77,77.79z M53.26,77.79c0-4.21-3.45-7.63-7.71-7.63c-4.26,0-7.71,3.41-7.71,7.63 c0,4.21,3.45,7.63,7.71,7.63C49.81,85.42,53.26,82,53.26,77.79L53.26,77.79z"/><path class="st9" d="M53.1,77.79c0,4.12-3.38,7.46-7.54,7.46s-7.54-3.34-7.54-7.46c0-4.12,3.38-7.46,7.54-7.46 S53.1,73.67,53.1,77.79L53.1,77.79z M53.59,77.79c0-4.39-3.6-7.95-8.04-7.95c-4.44,0-8.04,3.56-8.04,7.95s3.6,7.95,8.04,7.95 C49.99,85.74,53.59,82.18,53.59,77.79L53.59,77.79z"/><path class="st9" d="M53.42,77.79c0,4.3-3.52,7.79-7.87,7.79s-7.87-3.49-7.87-7.79c0-4.3,3.52-7.79,7.87-7.79 S53.42,73.49,53.42,77.79L53.42,77.79z M53.92,77.79c0-4.57-3.74-8.28-8.36-8.28c-4.62,0-8.36,3.7-8.36,8.28 c0,4.57,3.74,8.28,8.36,8.28C50.17,86.07,53.92,82.36,53.92,77.79L53.92,77.79z"/><path class="st9" d="M53.75,77.79c0,4.48-3.67,8.11-8.2,8.11c-4.53,0-8.2-3.63-8.2-8.11c0-4.48,3.67-8.11,8.2-8.11 C50.08,69.68,53.75,73.31,53.75,77.79L53.75,77.79z M54.24,77.79c0-4.75-3.89-8.6-8.69-8.6c-4.8,0-8.69,3.85-8.69,8.6 c0,4.75,3.89,8.6,8.69,8.6C50.35,86.39,54.24,82.54,54.24,77.79L54.24,77.79z"/><path class="st9" d="M54.08,77.79c0,4.66-3.82,8.44-8.53,8.44c-4.71,0-8.53-3.78-8.53-8.44c0-4.66,3.82-8.44,8.53-8.44 C50.26,69.35,54.08,73.13,54.08,77.79L54.08,77.79z M54.57,77.79c0-4.93-4.04-8.92-9.02-8.92c-4.98,0-9.02,4-9.02,8.92 c0,4.93,4.04,8.92,9.02,8.92C50.53,86.71,54.57,82.72,54.57,77.79L54.57,77.79z"/><path class="st10" d="M54.41,77.79c0,4.84-3.97,8.76-8.86,8.76c-4.89,0-8.86-3.92-8.86-8.76c0-4.84,3.97-8.76,8.86-8.76 C50.44,69.03,54.41,72.95,54.41,77.79L54.41,77.79z M54.9,77.79c0-5.11-4.19-9.25-9.35-9.25c-5.16,0-9.35,4.14-9.35,9.25 c0,5.11,4.19,9.25,9.35,9.25C50.71,87.04,54.9,82.9,54.9,77.79L54.9,77.79z"/><path class="st10" d="M54.74,77.79c0,5.02-4.11,9.09-9.18,9.09c-5.07,0-9.18-4.07-9.18-9.09c0-5.02,4.11-9.09,9.18-9.09 C50.62,68.7,54.74,72.77,54.74,77.79L54.74,77.79z M55.23,77.79c0-5.29-4.33-9.57-9.68-9.57c-5.34,0-9.68,4.29-9.68,9.57 c0,5.29,4.33,9.57,9.68,9.57C50.9,87.36,55.23,83.08,55.23,77.79L55.23,77.79z"/><path class="st10" d="M55.06,77.79c0,5.2-4.26,9.41-9.51,9.41c-5.25,0-9.51-4.21-9.51-9.41c0-5.2,4.26-9.41,9.51-9.41 C50.81,68.38,55.06,72.59,55.06,77.79L55.06,77.79z M55.56,77.79c0-5.47-4.48-9.9-10-9.9c-5.53,0-10,4.43-10,9.9 c0,5.47,4.48,9.9,10,9.9C51.08,87.69,55.56,83.26,55.56,77.79L55.56,77.79z"/><path class="st10" d="M55.39,77.79c0,5.38-4.41,9.74-9.84,9.74c-5.43,0-9.84-4.36-9.84-9.74c0-5.38,4.41-9.74,9.84-9.74 C50.99,68.06,55.39,72.41,55.39,77.79L55.39,77.79z M55.88,77.79c0-5.65-4.63-10.22-10.33-10.22c-5.71,0-10.33,4.58-10.33,10.22 s4.63,10.22,10.33,10.22C51.26,88.01,55.88,83.44,55.88,77.79L55.88,77.79z"/><path class="st10" d="M55.72,77.79c0,5.56-4.55,10.06-10.17,10.06c-5.62,0-10.17-4.5-10.17-10.06c0-5.56,4.55-10.06,10.17-10.06 C51.17,67.73,55.72,72.23,55.72,77.79L55.72,77.79z M56.21,77.79c0-5.82-4.77-10.55-10.66-10.55c-5.89,0-10.66,4.72-10.66,10.55 c0,5.82,4.77,10.55,10.66,10.55C51.44,88.34,56.21,83.62,56.21,77.79L56.21,77.79z"/><path class="st10" d="M56.05,77.79c0,5.74-4.7,10.38-10.5,10.38c-5.8,0-10.5-4.65-10.5-10.38c0-5.74,4.7-10.38,10.5-10.38 C51.35,67.41,56.05,72.06,56.05,77.79L56.05,77.79z M56.54,77.79c0-6-4.92-10.87-10.99-10.87c-6.07,0-10.99,4.87-10.99,10.87 c0,6,4.92,10.87,10.99,10.87C51.62,88.66,56.54,83.79,56.54,77.79L56.54,77.79z"/><path class="st10" d="M56.38,77.79c0,5.91-4.85,10.71-10.82,10.71c-5.98,0-10.82-4.79-10.82-10.71c0-5.91,4.85-10.71,10.82-10.71 C51.53,67.08,56.38,71.88,56.38,77.79L56.38,77.79z M56.87,77.79c0-6.18-5.07-11.2-11.32-11.2c-6.25,0-11.32,5.01-11.32,11.2 c0,6.18,5.07,11.2,11.32,11.2C51.8,88.99,56.87,83.97,56.87,77.79L56.87,77.79z"/><path class="st11" d="M56.7,77.79c0,6.09-4.99,11.03-11.15,11.03c-6.16,0-11.15-4.94-11.15-11.03c0-6.09,4.99-11.03,11.15-11.03 C51.71,66.76,56.7,71.7,56.7,77.79L56.7,77.79z M57.2,77.79c0-6.36-5.21-11.52-11.64-11.52c-6.43,0-11.64,5.16-11.64,11.52 c0,6.36,5.21,11.52,11.64,11.52C51.98,89.31,57.2,84.15,57.2,77.79L57.2,77.79z"/><path class="st11" d="M57.03,77.79c0,6.27-5.14,11.36-11.48,11.36c-6.34,0-11.48-5.09-11.48-11.36c0-6.27,5.14-11.36,11.48-11.36 C51.89,66.43,57.03,71.52,57.03,77.79L57.03,77.79z M57.52,77.79c0-6.54-5.36-11.84-11.97-11.84c-6.61,0-11.97,5.3-11.97,11.84 c0,6.54,5.36,11.84,11.97,11.84C52.16,89.64,57.52,84.33,57.52,77.79L57.52,77.79z"/><path class="st12" d="M57.36,77.79c0,6.45-5.29,11.68-11.81,11.68c-6.52,0-11.81-5.23-11.81-11.68c0-6.45,5.29-11.68,11.81-11.68 C52.07,66.11,57.36,71.34,57.36,77.79L57.36,77.79z M57.85,77.79c0-6.72-5.51-12.17-12.3-12.17c-6.79,0-12.3,5.45-12.3,12.17 c0,6.72,5.51,12.17,12.3,12.17C52.34,89.96,57.85,84.51,57.85,77.79L57.85,77.79z"/><path class="st12" d="M57.69,77.79c0,6.63-5.43,12.01-12.14,12.01c-6.7,0-12.14-5.38-12.14-12.01c0-6.63,5.43-12.01,12.14-12.01 C52.25,65.78,57.69,71.16,57.69,77.79L57.69,77.79z M58.18,77.79c0-6.9-5.65-12.49-12.63-12.49c-6.97,0-12.63,5.59-12.63,12.49 s5.65,12.49,12.63,12.49C52.53,90.28,58.18,84.69,58.18,77.79L58.18,77.79z"/><path class="st12" d="M58.02,77.79c0,6.81-5.58,12.33-12.46,12.33c-6.88,0-12.46-5.52-12.46-12.33c0-6.81,5.58-12.33,12.46-12.33 C52.44,65.46,58.02,70.98,58.02,77.79L58.02,77.79z M58.51,77.79c0-7.08-5.8-12.82-12.96-12.82c-7.16,0-12.96,5.74-12.96,12.82 c0,7.08,5.8,12.82,12.96,12.82C52.71,90.61,58.51,84.87,58.51,77.79L58.51,77.79z"/><path class="st12" d="M58.34,77.79c0,6.99-5.73,12.66-12.79,12.66c-7.07,0-12.79-5.67-12.79-12.66c0-6.99,5.73-12.66,12.79-12.66 C52.62,65.13,58.34,70.8,58.34,77.79L58.34,77.79z M58.84,77.79c0-7.26-5.95-13.14-13.28-13.14c-7.34,0-13.28,5.88-13.28,13.14 c0,7.26,5.95,13.14,13.28,13.14C52.89,90.93,58.84,85.05,58.84,77.79L58.84,77.79z"/><path class="st12" d="M58.67,77.79c0,7.17-5.87,12.98-13.12,12.98c-7.25,0-13.12-5.81-13.12-12.98c0-7.17,5.87-12.98,13.12-12.98 C52.8,64.81,58.67,70.62,58.67,77.79L58.67,77.79z M59.16,77.79c0-7.44-6.09-13.47-13.61-13.47c-7.52,0-13.61,6.03-13.61,13.47 s6.09,13.47,13.61,13.47C53.07,91.26,59.16,85.23,59.16,77.79L59.16,77.79z"/><path class="st12" d="M59,77.79c0,7.35-6.02,13.31-13.45,13.31c-7.43,0-13.45-5.96-13.45-13.31c0-7.35,6.02-13.3,13.45-13.3 C52.98,64.49,59,70.44,59,77.79L59,77.79z M59.49,77.79c0-7.62-6.24-13.79-13.94-13.79c-7.7,0-13.94,6.17-13.94,13.79 c0,7.62,6.24,13.79,13.94,13.79C53.25,91.58,59.49,85.41,59.49,77.79L59.49,77.79z"/><path class="st13" d="M59.33,77.79c0,7.53-6.17,13.63-13.78,13.63c-7.61,0-13.78-6.1-13.78-13.63c0-7.53,6.17-13.63,13.78-13.63 C53.16,64.16,59.33,70.26,59.33,77.79L59.33,77.79z M59.82,77.79c0-7.8-6.39-14.12-14.27-14.12c-7.88,0-14.27,6.32-14.27,14.12 c0,7.8,6.39,14.12,14.27,14.12C53.43,91.91,59.82,85.59,59.82,77.79L59.82,77.79z"/><path class="st13" d="M59.66,77.79c0,7.71-6.32,13.95-14.1,13.95c-7.79,0-14.1-6.25-14.1-13.95s6.32-13.95,14.1-13.95 C53.34,63.84,59.66,70.08,59.66,77.79L59.66,77.79z M60.15,77.79c0-7.98-6.54-14.44-14.6-14.44c-8.06,0-14.6,6.47-14.6,14.44 c0,7.98,6.54,14.44,14.6,14.44C53.61,92.23,60.15,85.77,60.15,77.79L60.15,77.79z"/><path class="st13" d="M59.98,77.79c0,7.89-6.46,14.28-14.43,14.28c-7.97,0-14.43-6.39-14.43-14.28c0-7.89,6.46-14.28,14.43-14.28 C53.52,63.51,59.98,69.9,59.98,77.79L59.98,77.79z M60.48,77.79c0-8.15-6.68-14.77-14.92-14.77c-8.24,0-14.92,6.61-14.92,14.77 c0,8.15,6.68,14.77,14.92,14.77C53.79,92.56,60.48,85.95,60.48,77.79L60.48,77.79z"/><path class="st13" d="M60.31,77.79c0,8.07-6.61,14.6-14.76,14.6c-8.15,0-14.76-6.54-14.76-14.6c0-8.07,6.61-14.6,14.76-14.6 C53.7,63.19,60.31,69.73,60.31,77.79L60.31,77.79z M60.8,77.79c0-8.33-6.83-15.09-15.25-15.09c-8.42,0-15.25,6.76-15.25,15.09 c0,8.33,6.83,15.09,15.25,15.09C53.98,92.88,60.8,86.12,60.8,77.79L60.8,77.79z"/><path class="st13" d="M60.64,77.79c0,8.24-6.76,14.93-15.09,14.93c-8.33,0-15.09-6.68-15.09-14.93c0-8.24,6.76-14.93,15.09-14.93 C53.88,62.86,60.64,69.55,60.64,77.79L60.64,77.79z M61.13,77.79c0-8.51-6.98-15.41-15.58-15.41c-8.6,0-15.58,6.9-15.58,15.41 c0,8.51,6.98,15.41,15.58,15.41C54.16,93.2,61.13,86.3,61.13,77.79L61.13,77.79z"/><path class="st13" d="M60.97,77.79c0,8.42-6.9,15.25-15.42,15.25c-8.51,0-15.42-6.83-15.42-15.25c0-8.42,6.9-15.25,15.42-15.25 C54.07,62.54,60.97,69.37,60.97,77.79L60.97,77.79z M61.46,77.79c0-8.69-7.12-15.74-15.91-15.74c-8.79,0-15.91,7.05-15.91,15.74 s7.12,15.74,15.91,15.74C54.34,93.53,61.46,86.48,61.46,77.79L61.46,77.79z"/><path class="st13" d="M61.3,77.79c0,8.6-7.05,15.58-15.74,15.58c-8.7,0-15.74-6.97-15.74-15.58c0-8.6,7.05-15.58,15.74-15.58 C54.25,62.21,61.3,69.19,61.3,77.79L61.3,77.79z M61.79,77.79c0-8.87-7.27-16.06-16.24-16.06c-8.97,0-16.24,7.19-16.24,16.06 c0,8.87,7.27,16.06,16.24,16.06C54.52,93.85,61.79,86.66,61.79,77.79L61.79,77.79z"/><path class="st14" d="M61.62,77.79c0,8.78-7.2,15.9-16.07,15.9c-8.88,0-16.07-7.12-16.07-15.9c0-8.78,7.2-15.9,16.07-15.9 C54.43,61.89,61.62,69.01,61.62,77.79L61.62,77.79z M62.12,77.79c0-9.05-7.42-16.39-16.56-16.39c-9.15,0-16.56,7.34-16.56,16.39 c0,9.05,7.42,16.39,16.56,16.39C54.7,94.18,62.12,86.84,62.12,77.79L62.12,77.79z"/><path class="st15" d="M61.95,77.79c0,8.96-7.34,16.23-16.4,16.23c-9.06,0-16.4-7.26-16.4-16.23s7.34-16.23,16.4-16.23 C54.61,61.57,61.95,68.83,61.95,77.79L61.95,77.79z M62.44,77.79c0-9.23-7.56-16.71-16.89-16.71c-9.33,0-16.89,7.48-16.89,16.71 c0,9.23,7.56,16.71,16.89,16.71C54.88,94.5,62.44,87.02,62.44,77.79L62.44,77.79z"/><path class="st15" d="M62.28,77.79c0,9.14-7.49,16.55-16.73,16.55c-9.24,0-16.73-7.41-16.73-16.55c0-9.14,7.49-16.55,16.73-16.55 C54.79,61.24,62.28,68.65,62.28,77.79L62.28,77.79z M62.77,77.79c0-9.41-7.71-17.04-17.22-17.04s-17.22,7.63-17.22,17.04 c0,9.41,7.71,17.04,17.22,17.04S62.77,87.2,62.77,77.79L62.77,77.79z"/><path class="st15" d="M62.61,77.79c0,9.32-7.64,16.87-17.06,16.87c-9.42,0-17.06-7.55-17.06-16.87c0-9.32,7.64-16.87,17.06-16.87 C54.97,60.92,62.61,68.47,62.61,77.79L62.61,77.79z M63.1,77.79c0-9.59-7.86-17.36-17.55-17.36C35.86,60.43,28,68.2,28,77.79 c0,9.59,7.86,17.36,17.55,17.36C55.24,95.15,63.1,87.38,63.1,77.79L63.1,77.79z"/><path class="st15" d="M62.94,77.79c0,9.5-7.78,17.2-17.38,17.2c-9.6,0-17.38-7.7-17.38-17.2c0-9.5,7.78-17.2,17.38-17.2 C55.15,60.59,62.94,68.29,62.94,77.79L62.94,77.79z M63.43,77.79c0-9.77-8-17.69-17.88-17.69c-9.87,0-17.88,7.92-17.88,17.69 c0,9.77,8,17.69,17.88,17.69C55.42,95.48,63.43,87.56,63.43,77.79L63.43,77.79z"/><path class="st15" d="M63.26,77.79c0,9.68-7.93,17.52-17.71,17.52c-9.78,0-17.71-7.85-17.71-17.52c0-9.68,7.93-17.52,17.71-17.52 C55.33,60.27,63.26,68.11,63.26,77.79L63.26,77.79z M63.76,77.79c0-9.95-8.15-18.01-18.2-18.01c-10.05,0-18.2,8.06-18.2,18.01 c0,9.95,8.15,18.01,18.2,18.01C55.61,95.8,63.76,87.74,63.76,77.79L63.76,77.79z"/><path class="st15" d="M63.59,77.79c0,9.86-8.08,17.85-18.04,17.85c-9.96,0-18.04-7.99-18.04-17.85c0-9.86,8.08-17.85,18.04-17.85 C55.52,59.94,63.59,67.93,63.59,77.79L63.59,77.79z M64.08,77.79c0-10.13-8.3-18.34-18.53-18.34c-10.24,0-18.53,8.21-18.53,18.34 c0,10.13,8.3,18.34,18.53,18.34C55.79,96.13,64.08,87.92,64.08,77.79L64.08,77.79z"/><path class="st15" d="M63.92,77.79c0,10.04-8.22,18.17-18.37,18.17c-10.14,0-18.37-8.14-18.37-18.17 c0-10.04,8.22-18.17,18.37-18.17C55.7,59.62,63.92,67.75,63.92,77.79L63.92,77.79z M64.41,77.79c0-10.31-8.44-18.66-18.86-18.66 c-10.42,0-18.86,8.35-18.86,18.66c0,10.31,8.44,18.66,18.86,18.66C55.97,96.45,64.41,88.1,64.41,77.79L64.41,77.79z"/><path class="st16" d="M64.25,77.79c0,10.22-8.37,18.5-18.7,18.5c-10.33,0-18.7-8.28-18.7-18.5c0-10.22,8.37-18.5,18.7-18.5 C55.88,59.29,64.25,67.57,64.25,77.79L64.25,77.79z M64.74,77.79c0-10.48-8.59-18.98-19.19-18.98c-10.6,0-19.19,8.5-19.19,18.98 c0,10.48,8.59,18.98,19.19,18.98C56.15,96.77,64.74,88.28,64.74,77.79L64.74,77.79z"/><path class="st16" d="M64.58,77.79c0,10.39-8.52,18.82-19.02,18.82c-10.51,0-19.02-8.43-19.02-18.82 c0-10.39,8.52-18.82,19.02-18.82C56.06,58.97,64.58,67.4,64.58,77.79L64.58,77.79z M65.07,77.79c0-10.66-8.74-19.31-19.52-19.31 c-10.78,0-19.52,8.64-19.52,19.31c0,10.66,8.74,19.31,19.52,19.31C56.33,97.1,65.07,88.45,65.07,77.79L65.07,77.79z"/><path class="st16" d="M64.9,77.79c0,10.57-8.66,19.15-19.35,19.15c-10.69,0-19.35-8.57-19.35-19.15 c0-10.57,8.66-19.15,19.35-19.15C56.24,58.64,64.9,67.22,64.9,77.79L64.9,77.79z M65.4,77.79c0-10.84-8.88-19.63-19.85-19.63 c-10.96,0-19.84,8.79-19.84,19.63c0,10.84,8.88,19.63,19.84,19.63C56.51,97.42,65.4,88.63,65.4,77.79L65.4,77.79z"/><path class="st16" d="M65.23,77.79c0,10.75-8.81,19.47-19.68,19.47c-10.87,0-19.68-8.72-19.68-19.47s8.81-19.47,19.68-19.47 C56.42,58.32,65.23,67.04,65.23,77.79L65.23,77.79z M65.72,77.79c0-11.02-9.03-19.96-20.17-19.96c-11.14,0-20.17,8.94-20.17,19.96 s9.03,19.96,20.17,19.96C56.69,97.75,65.72,88.81,65.72,77.79L65.72,77.79z"/><path class="st16" d="M65.56,77.79c0,10.93-8.96,19.8-20.01,19.8c-11.05,0-20.01-8.86-20.01-19.8c0-10.93,8.96-19.8,20.01-19.8 C56.6,58,65.56,66.86,65.56,77.79L65.56,77.79z M66.05,77.79c0-11.2-9.18-20.28-20.5-20.28c-11.32,0-20.5,9.08-20.5,20.28 c0,11.2,9.18,20.28,20.5,20.28C56.87,98.07,66.05,88.99,66.05,77.79L66.05,77.79z"/><path class="st16" d="M65.89,77.79c0,11.11-9.11,20.12-20.34,20.12c-11.23,0-20.34-9.01-20.34-20.12 c0-11.11,9.11-20.12,20.34-20.12C56.78,57.67,65.89,66.68,65.89,77.79L65.89,77.79z M66.38,77.79c0-11.38-9.33-20.61-20.83-20.61 c-11.5,0-20.83,9.23-20.83,20.61c0,11.38,9.33,20.61,20.83,20.61C57.05,98.4,66.38,89.17,66.38,77.79L66.38,77.79z"/><path class="st16" d="M66.22,77.79c0,11.29-9.25,20.44-20.67,20.44c-11.41,0-20.66-9.15-20.66-20.44s9.25-20.44,20.66-20.44 C56.96,57.35,66.22,66.5,66.22,77.79L66.22,77.79z M66.71,77.79c0-11.56-9.47-20.93-21.16-20.93s-21.16,9.37-21.16,20.93 c0,11.56,9.47,20.93,21.16,20.93S66.71,89.35,66.71,77.79L66.71,77.79z"/><path class="st17" d="M66.54,77.79c0,11.47-9.4,20.77-20.99,20.77c-11.59,0-20.99-9.3-20.99-20.77s9.4-20.77,20.99-20.77 C57.15,57.02,66.54,66.32,66.54,77.79L66.54,77.79z M67.04,77.79c0-11.74-9.62-21.26-21.49-21.26c-11.87,0-21.48,9.52-21.48,21.26 c0,11.74,9.62,21.26,21.48,21.26C57.42,99.05,67.04,89.53,67.04,77.79L67.04,77.79z"/><path class="st17" d="M66.87,77.79c0,11.65-9.55,21.09-21.32,21.09c-11.78,0-21.32-9.44-21.32-21.09 c0-11.65,9.55-21.09,21.32-21.09C57.33,56.7,66.87,66.14,66.87,77.79L66.87,77.79z M67.36,77.79c0-11.92-9.77-21.58-21.81-21.58 c-12.05,0-21.81,9.66-21.81,21.58c0,11.92,9.77,21.58,21.81,21.58C57.6,99.37,67.36,89.71,67.36,77.79L67.36,77.79z"/><path class="st17" d="M67.2,77.79c0,11.83-9.69,21.42-21.65,21.42c-11.96,0-21.65-9.59-21.65-21.42 c0-11.83,9.69-21.42,21.65-21.42C57.51,56.37,67.2,65.96,67.2,77.79L67.2,77.79z M67.69,77.79c0-12.1-9.91-21.9-22.14-21.9 c-12.23,0-22.14,9.81-22.14,21.9c0,12.1,9.91,21.9,22.14,21.9C57.78,99.7,67.69,89.89,67.69,77.79L67.69,77.79z"/><path class="st17" d="M67.53,77.79c0,12.01-9.84,21.74-21.98,21.74c-12.14,0-21.98-9.73-21.98-21.74 c0-12.01,9.84-21.74,21.98-21.74C57.69,56.05,67.53,65.78,67.53,77.79L67.53,77.79z M68.02,77.79c0-12.28-10.06-22.23-22.47-22.23 c-12.41,0-22.47,9.95-22.47,22.23s10.06,22.23,22.47,22.23C57.96,100.02,68.02,90.07,68.02,77.79L68.02,77.79z"/><path class="st17" d="M67.86,77.79c0,12.19-9.99,22.07-22.31,22.07c-12.32,0-22.3-9.88-22.3-22.07c0-12.19,9.99-22.07,22.3-22.07 C57.87,55.72,67.86,65.6,67.86,77.79L67.86,77.79z M68.35,77.79c0-12.46-10.21-22.55-22.8-22.55c-12.59,0-22.8,10.1-22.8,22.55 c0,12.46,10.21,22.55,22.8,22.55C58.14,100.34,68.35,90.25,68.35,77.79L68.35,77.79z"/><path class="st17" d="M68.18,77.79c0,12.37-10.13,22.39-22.63,22.39c-12.5,0-22.63-10.03-22.63-22.39 c0-12.37,10.13-22.39,22.63-22.39C58.05,55.4,68.18,65.42,68.18,77.79L68.18,77.79z M68.68,77.79c0-12.64-10.35-22.88-23.13-22.88 c-12.77,0-23.13,10.24-23.13,22.88c0,12.64,10.35,22.88,23.13,22.88C58.32,100.67,68.68,90.43,68.68,77.79L68.68,77.79z"/><path class="st17" d="M68.51,77.79c0,12.55-10.28,22.72-22.96,22.72S22.59,90.34,22.59,77.79c0-12.55,10.28-22.72,22.96-22.72 S68.51,65.24,68.51,77.79L68.51,77.79z M69,77.79c0-12.81-10.5-23.2-23.45-23.2c-12.95,0-23.45,10.39-23.45,23.2 c0,12.81,10.5,23.2,23.45,23.2C58.5,100.99,69,90.61,69,77.79L69,77.79z"/><path class="st18" d="M68.84,77.79c0,12.72-10.43,23.04-23.29,23.04c-12.86,0-23.29-10.32-23.29-23.04 c0-12.72,10.43-23.04,23.29-23.04C58.41,54.75,68.84,65.07,68.84,77.79L68.84,77.79z M69.33,77.79 c0-12.99-10.65-23.53-23.78-23.53c-13.13,0-23.78,10.53-23.78,23.53c0,12.99,10.65,23.53,23.78,23.53 C58.69,101.32,69.33,90.78,69.33,77.79L69.33,77.79z"/><path class="st18" d="M69.17,77.79c0,12.9-10.57,23.36-23.62,23.36c-13.04,0-23.62-10.46-23.62-23.36 c0-12.9,10.57-23.36,23.62-23.36C58.59,54.43,69.17,64.89,69.17,77.79L69.17,77.79z M69.66,77.79c0-13.17-10.79-23.85-24.11-23.85 c-13.31,0-24.11,10.68-24.11,23.85c0,13.17,10.79,23.85,24.11,23.85C58.87,101.64,69.66,90.96,69.66,77.79L69.66,77.79z"/><path class="st18" d="M69.5,77.79c0,13.08-10.72,23.69-23.95,23.69c-13.22,0-23.95-10.61-23.95-23.69S32.33,54.1,45.55,54.1 C58.78,54.1,69.5,64.71,69.5,77.79L69.5,77.79z M69.99,77.79c0-13.35-10.94-24.18-24.44-24.18c-13.5,0-24.44,10.82-24.44,24.18 c0,13.35,10.94,24.18,24.44,24.18C59.05,101.97,69.99,91.14,69.99,77.79L69.99,77.79z"/><path class="st18" d="M69.82,77.79c0,13.26-10.87,24.01-24.27,24.01c-13.41,0-24.27-10.75-24.27-24.01 c0-13.26,10.87-24.01,24.27-24.01C58.96,53.78,69.82,64.53,69.82,77.79L69.82,77.79z M70.32,77.79c0-13.53-11.09-24.5-24.77-24.5 c-13.68,0-24.77,10.97-24.77,24.5s11.09,24.5,24.77,24.5C59.23,102.29,70.32,91.32,70.32,77.79L70.32,77.79z"/><path class="st18" d="M70.15,77.79c0,13.44-11.01,24.34-24.6,24.34c-13.59,0-24.6-10.9-24.6-24.34c0-13.44,11.01-24.34,24.6-24.34 C59.14,53.45,70.15,64.35,70.15,77.79L70.15,77.79z M70.64,77.79c0-13.71-11.23-24.83-25.09-24.83S20.46,64.08,20.46,77.79 c0,13.71,11.23,24.83,25.09,24.83S70.64,91.5,70.64,77.79L70.64,77.79z"/><path class="st18" d="M70.48,77.79c0,13.62-11.16,24.66-24.93,24.66c-13.77,0-24.93-11.04-24.93-24.66 c0-13.62,11.16-24.66,24.93-24.66C59.32,53.13,70.48,64.17,70.48,77.79L70.48,77.79z M70.97,77.79 c0-13.89-11.38-25.15-25.42-25.15c-14.04,0-25.42,11.26-25.42,25.15c0,13.89,11.38,25.15,25.42,25.15 C59.59,102.94,70.97,91.68,70.97,77.79L70.97,77.79z"/><path class="st18" d="M70.81,77.79c0,13.8-11.31,24.99-25.26,24.99c-13.95,0-25.26-11.19-25.26-24.99 c0-13.8,11.31-24.99,25.26-24.99C59.5,52.8,70.81,63.99,70.81,77.79L70.81,77.79z M71.3,77.79c0-14.07-11.53-25.47-25.75-25.47 c-14.22,0-25.75,11.41-25.75,25.47c0,14.07,11.53,25.47,25.75,25.47C59.77,103.26,71.3,91.86,71.3,77.79L71.3,77.79z"/><path class="st19" d="M71.14,77.79c0,13.98-11.45,25.31-25.59,25.31c-14.13,0-25.59-11.33-25.59-25.31 c0-13.98,11.46-25.31,25.59-25.31C59.68,52.48,71.14,63.81,71.14,77.79L71.14,77.79z M71.63,77.79c0-14.25-11.68-25.8-26.08-25.8 c-14.4,0-26.08,11.55-26.08,25.8c0,14.25,11.68,25.8,26.08,25.8C59.95,103.59,71.63,92.04,71.63,77.79L71.63,77.79z"/><path class="st20" d="M71.46,77.79c0,14.16-11.6,25.64-25.91,25.64c-14.31,0-25.91-11.48-25.91-25.64 c0-14.16,11.6-25.64,25.91-25.64C59.86,52.15,71.46,63.63,71.46,77.79L71.46,77.79z M71.96,77.79c0-14.43-11.82-26.12-26.41-26.12 c-14.58,0-26.41,11.7-26.41,26.12c0,14.43,11.82,26.12,26.41,26.12C60.13,103.91,71.96,92.22,71.96,77.79L71.96,77.79z"/><path class="st20" d="M71.79,77.79c0,14.34-11.75,25.96-26.24,25.96c-14.49,0-26.24-11.62-26.24-25.96s11.75-25.96,26.24-25.96 C60.04,51.83,71.79,63.45,71.79,77.79L71.79,77.79z M72.28,77.79c0-14.61-11.97-26.45-26.73-26.45 c-14.76,0-26.73,11.84-26.73,26.45c0,14.61,11.97,26.45,26.73,26.45C60.32,104.24,72.28,92.4,72.28,77.79L72.28,77.79z"/><path class="st20" d="M72.12,77.79c0,14.52-11.9,26.29-26.57,26.29S18.98,92.31,18.98,77.79c0-14.52,11.9-26.29,26.57-26.29 S72.12,63.27,72.12,77.79L72.12,77.79z M72.61,77.79c0-14.79-12.12-26.77-27.06-26.77c-14.95,0-27.06,11.99-27.06,26.77 c0,14.79,12.12,26.77,27.06,26.77C60.5,104.56,72.61,92.58,72.61,77.79L72.61,77.79z"/><path class="st20" d="M72.45,77.79c0,14.7-12.04,26.61-26.9,26.61c-14.85,0-26.9-11.91-26.9-26.61c0-14.7,12.04-26.61,26.9-26.61 C60.41,51.18,72.45,63.09,72.45,77.79L72.45,77.79z M72.94,77.79c0-14.97-12.26-27.1-27.39-27.1c-15.13,0-27.39,12.13-27.39,27.1 c0,14.97,12.26,27.1,27.39,27.1C60.68,104.89,72.94,92.76,72.94,77.79L72.94,77.79z"/><path class="st20" d="M72.78,77.79c0,14.88-12.19,26.93-27.23,26.93c-15.04,0-27.23-12.06-27.23-26.93 c0-14.88,12.19-26.93,27.23-26.93C60.59,50.86,72.78,62.91,72.78,77.79L72.78,77.79z M73.27,77.79 c0-15.14-12.41-27.42-27.72-27.42c-15.31,0-27.72,12.28-27.72,27.42s12.41,27.42,27.72,27.42 C60.86,105.21,73.27,92.93,73.27,77.79L73.27,77.79z"/><path class="st20" d="M73.1,77.79c0,15.05-12.34,27.26-27.55,27.26C30.33,105.05,18,92.85,18,77.79 c0-15.05,12.34-27.26,27.55-27.26C60.77,50.53,73.1,62.74,73.1,77.79L73.1,77.79z M73.6,77.79c0-15.32-12.56-27.75-28.05-27.75 c-15.49,0-28.05,12.42-28.05,27.75c0,15.32,12.56,27.75,28.05,27.75C61.04,105.54,73.6,93.11,73.6,77.79L73.6,77.79z"/><path class="st20" d="M73.43,77.79c0,15.23-12.48,27.58-27.88,27.58c-15.4,0-27.88-12.35-27.88-27.58 c0-15.23,12.48-27.58,27.88-27.58C60.95,50.21,73.43,62.56,73.43,77.79L73.43,77.79z M73.92,77.79c0-15.5-12.7-28.07-28.37-28.07 c-15.67,0-28.37,12.57-28.37,28.07c0,15.5,12.7,28.07,28.37,28.07C61.22,105.86,73.92,93.29,73.92,77.79L73.92,77.79z"/><path class="st21" d="M73.76,77.79c0,15.41-12.63,27.91-28.21,27.91c-15.58,0-28.21-12.49-28.21-27.91 c0-15.41,12.63-27.91,28.21-27.91C61.13,49.88,73.76,62.38,73.76,77.79L73.76,77.79z M74.25,77.79c0-15.68-12.85-28.39-28.7-28.39 c-15.85,0-28.7,12.71-28.7,28.39c0,15.68,12.85,28.39,28.7,28.39C61.4,106.19,74.25,93.47,74.25,77.79L74.25,77.79z"/><path class="st21" d="M74.09,77.79c0,15.59-12.78,28.23-28.54,28.23c-15.76,0-28.54-12.64-28.54-28.23s12.78-28.23,28.54-28.23 C61.31,49.56,74.09,62.2,74.09,77.79L74.09,77.79z M74.58,77.79c0-15.86-13-28.72-29.03-28.72c-16.03,0-29.03,12.86-29.03,28.72 c0,15.86,13,28.72,29.03,28.72C61.58,106.51,74.58,93.65,74.58,77.79L74.58,77.79z"/><path class="st21" d="M74.42,77.79c0,15.77-12.92,28.56-28.87,28.56c-15.94,0-28.87-12.79-28.87-28.56 c0-15.77,12.92-28.56,28.87-28.56C61.49,49.23,74.42,62.02,74.42,77.79L74.42,77.79z M74.91,77.79 c0-16.04-13.14-29.04-29.36-29.04c-16.21,0-29.36,13-29.36,29.04c0,16.04,13.14,29.04,29.36,29.04 C61.77,106.83,74.91,93.83,74.91,77.79L74.91,77.79z"/><path class="st21" d="M74.74,77.79c0,15.95-13.07,28.88-29.19,28.88c-16.12,0-29.19-12.93-29.19-28.88 c0-15.95,13.07-28.88,29.19-28.88C61.67,48.91,74.74,61.84,74.74,77.79L74.74,77.79z M75.24,77.79 c0-16.22-13.29-29.37-29.69-29.37c-16.39,0-29.69,13.15-29.69,29.37c0,16.22,13.29,29.37,29.69,29.37 C61.95,107.16,75.24,94.01,75.24,77.79L75.24,77.79z"/><path class="st21" d="M75.07,77.79c0,16.13-13.22,29.21-29.52,29.21c-16.3,0-29.52-13.08-29.52-29.21 c0-16.13,13.22-29.21,29.52-29.21C61.86,48.58,75.07,61.66,75.07,77.79L75.07,77.79z M75.56,77.79c0-16.4-13.44-29.69-30.01-29.69 c-16.58,0-30.01,13.29-30.01,29.69s13.44,29.69,30.01,29.69C62.13,107.48,75.56,94.19,75.56,77.79L75.56,77.79z"/><path class="st21" d="M75.4,77.79c0,16.31-13.36,29.53-29.85,29.53c-16.49,0-29.85-13.22-29.85-29.53 c0-16.31,13.36-29.53,29.85-29.53C62.04,48.26,75.4,61.48,75.4,77.79L75.4,77.79z M75.89,77.79c0-16.58-13.58-30.02-30.34-30.02 c-16.76,0-30.34,13.44-30.34,30.02c0,16.58,13.58,30.02,30.34,30.02C62.31,107.81,75.89,94.37,75.89,77.79L75.89,77.79z"/><path class="st22" d="M75.73,77.79c0,16.49-13.51,29.86-30.18,29.86c-16.67,0-30.18-13.37-30.18-29.86 c0-16.49,13.51-29.86,30.18-29.86C62.22,47.94,75.73,61.3,75.73,77.79L75.73,77.79z M76.22,77.79c0-16.76-13.73-30.34-30.67-30.34 c-16.94,0-30.67,13.58-30.67,30.34c0,16.76,13.73,30.34,30.67,30.34C62.49,108.13,76.22,94.55,76.22,77.79L76.22,77.79z"/><path class="st22" d="M76.06,77.79c0,16.67-13.66,30.18-30.51,30.18S15.05,94.46,15.05,77.79c0-16.67,13.66-30.18,30.51-30.18 S76.06,61.12,76.06,77.79L76.06,77.79z M76.55,77.79c0-16.94-13.88-30.67-31-30.67c-17.12,0-31,13.73-31,30.67 c0,16.94,13.88,30.67,31,30.67C62.67,108.46,76.55,94.73,76.55,77.79L76.55,77.79z"/><path class="st23" d="M76.38,77.79c0,16.85-13.8,30.5-30.83,30.5c-17.03,0-30.83-13.66-30.83-30.5c0-16.85,13.8-30.5,30.83-30.5 C62.58,47.29,76.38,60.94,76.38,77.79L76.38,77.79z M76.88,77.79c0-17.12-14.02-30.99-31.33-30.99 c-17.3,0-31.33,13.88-31.33,30.99c0,17.12,14.02,30.99,31.33,30.99C62.85,108.78,76.88,94.91,76.88,77.79L76.88,77.79z"/><path class="st23" d="M76.71,77.79c0,17.03-13.95,30.83-31.16,30.83c-17.21,0-31.16-13.8-31.16-30.83 c0-17.03,13.95-30.83,31.16-30.83C62.76,46.96,76.71,60.76,76.71,77.79L76.71,77.79z M77.2,77.79c0-17.29-14.17-31.32-31.65-31.32 c-17.48,0-31.65,14.02-31.65,31.32c0,17.3,14.17,31.32,31.65,31.32C63.03,109.11,77.2,95.09,77.2,77.79L77.2,77.79z"/><path class="st23" d="M77.04,77.79c0,17.21-14.1,31.15-31.49,31.15c-17.39,0-31.49-13.95-31.49-31.15 c0-17.21,14.1-31.15,31.49-31.15C62.94,46.64,77.04,60.59,77.04,77.79L77.04,77.79z M77.53,77.79c0-17.47-14.32-31.64-31.98-31.64 c-17.66,0-31.98,14.17-31.98,31.64s14.32,31.64,31.98,31.64C63.21,109.43,77.53,95.26,77.53,77.79L77.53,77.79z"/><path class="st23" d="M77.37,77.79c0,17.38-14.25,31.48-31.82,31.48c-17.57,0-31.82-14.09-31.82-31.48 c0-17.38,14.25-31.48,31.82-31.48C63.12,46.31,77.37,60.41,77.37,77.79L77.37,77.79z M77.86,77.79 c0-17.65-14.47-31.96-32.31-31.96S13.24,60.14,13.24,77.79s14.47,31.96,32.31,31.96S77.86,95.44,77.86,77.79L77.86,77.79z"/><path class="st23" d="M77.7,77.79c0,17.56-14.39,31.8-32.15,31.8c-17.75,0-32.15-14.24-32.15-31.8c0-17.56,14.39-31.8,32.15-31.8 C63.31,45.99,77.7,60.23,77.7,77.79L77.7,77.79z M78.19,77.79c0-17.83-14.61-32.29-32.64-32.29c-18.03,0-32.64,14.46-32.64,32.29 c0,17.83,14.61,32.29,32.64,32.29C63.58,110.08,78.19,95.62,78.19,77.79L78.19,77.79z"/><path class="st23" d="M78.03,77.79c0,17.74-14.54,32.13-32.47,32.13c-17.93,0-32.47-14.38-32.47-32.13 c0-17.74,14.54-32.13,32.47-32.13C63.49,45.66,78.03,60.05,78.03,77.79L78.03,77.79z M78.52,77.79 c0-18.01-14.76-32.61-32.97-32.61c-18.21,0-32.97,14.6-32.97,32.61c0,18.01,14.76,32.61,32.97,32.61 C63.76,110.4,78.52,95.8,78.52,77.79L78.52,77.79z"/><path class="st23" d="M78.35,77.79c0,17.92-14.69,32.45-32.8,32.45c-18.12,0-32.8-14.53-32.8-32.45 c0-17.92,14.69-32.45,32.8-32.45C63.67,45.34,78.35,59.87,78.35,77.79L78.35,77.79z M78.85,77.79c0-18.19-14.91-32.94-33.29-32.94 c-18.39,0-33.29,14.75-33.29,32.94c0,18.19,14.91,32.94,33.29,32.94C63.94,110.73,78.85,95.98,78.85,77.79L78.85,77.79z"/><path class="st24" d="M78.68,77.79c0,18.1-14.83,32.78-33.13,32.78c-18.3,0-33.13-14.67-33.13-32.78 c0-18.1,14.83-32.78,33.13-32.78C63.85,45.01,78.68,59.69,78.68,77.79L78.68,77.79z M79.17,77.79c0-18.37-15.05-33.26-33.62-33.26 c-18.57,0-33.62,14.89-33.62,33.26c0,18.37,15.05,33.26,33.62,33.26C64.12,111.05,79.17,96.16,79.17,77.79L79.17,77.79z"/><path class="st24" d="M79.01,77.79c0,18.28-14.98,33.1-33.46,33.1c-18.48,0-33.46-14.82-33.46-33.1c0-18.28,14.98-33.1,33.46-33.1 C64.03,44.69,79.01,59.51,79.01,77.79L79.01,77.79z M79.5,77.79c0-18.55-15.2-33.59-33.95-33.59C26.8,44.2,11.6,59.24,11.6,77.79 c0,18.55,15.2,33.59,33.95,33.59C64.3,111.38,79.5,96.34,79.5,77.79L79.5,77.79z"/><path class="st24" d="M79.34,77.79c0,18.46-15.13,33.42-33.79,33.42c-18.66,0-33.79-14.96-33.79-33.42 c0-18.46,15.13-33.42,33.79-33.42C64.21,44.37,79.34,59.33,79.34,77.79L79.34,77.79z M79.83,77.79 c0-18.73-15.35-33.91-34.28-33.91c-18.93,0-34.28,15.18-34.28,33.91s15.35,33.91,34.28,33.91C64.48,111.7,79.83,96.52,79.83,77.79 L79.83,77.79z"/><path class="st24" d="M79.67,77.79c0,18.64-15.27,33.75-34.11,33.75c-18.84,0-34.11-15.11-34.11-33.75 c0-18.64,15.27-33.75,34.11-33.75C64.39,44.04,79.67,59.15,79.67,77.79L79.67,77.79z M80.16,77.79 c0-18.91-15.49-34.24-34.61-34.24c-19.11,0-34.61,15.33-34.61,34.24c0,18.91,15.49,34.24,34.61,34.24 C64.66,112.03,80.16,96.7,80.16,77.79L80.16,77.79z"/><path class="st24" d="M79.99,77.79c0,18.82-15.42,34.07-34.44,34.07c-19.02,0-34.44-15.26-34.44-34.07 c0-18.82,15.42-34.07,34.44-34.07C64.57,43.72,79.99,58.97,79.99,77.79L79.99,77.79z M80.49,77.79 c0-19.09-15.64-34.56-34.93-34.56c-19.29,0-34.93,15.47-34.93,34.56c0,19.09,15.64,34.56,34.93,34.56 C64.84,112.35,80.49,96.88,80.49,77.79L80.49,77.79z"/><path class="st25" d="M80.32,77.79c0,19-15.57,34.4-34.77,34.4c-19.2,0-34.77-15.4-34.77-34.4c0-19,15.57-34.4,34.77-34.4 C64.75,43.39,80.32,58.79,80.32,77.79L80.32,77.79z M80.81,77.79c0-19.27-15.79-34.89-35.26-34.89 c-19.47,0-35.26,15.62-35.26,34.89c0,19.27,15.79,34.89,35.26,34.89C65.03,112.68,80.81,97.06,80.81,77.79L80.81,77.79z"/><path class="st25" d="M80.65,77.79c0,19.18-15.71,34.72-35.1,34.72c-19.38,0-35.1-15.55-35.1-34.72s15.71-34.72,35.1-34.72 C64.94,43.07,80.65,58.61,80.65,77.79L80.65,77.79z M81.14,77.79c0-19.45-15.93-35.21-35.59-35.21 c-19.66,0-35.59,15.76-35.59,35.21C9.96,97.24,25.9,113,45.55,113C65.21,113,81.14,97.24,81.14,77.79L81.14,77.79z"/><path class="st25" d="M80.98,77.79c0,19.36-15.86,35.05-35.43,35.05c-19.57,0-35.43-15.69-35.43-35.05 c0-19.36,15.86-35.05,35.43-35.05C65.12,42.74,80.98,58.43,80.98,77.79L80.98,77.79z M81.47,77.79 c0-19.62-16.08-35.53-35.92-35.53c-19.84,0-35.92,15.91-35.92,35.53c0,19.62,16.08,35.53,35.92,35.53 C65.39,113.32,81.47,97.42,81.47,77.79L81.47,77.79z"/><path class="st26" d="M81.31,77.79c0,19.54-16.01,35.37-35.75,35.37c-19.75,0-35.75-15.84-35.75-35.37s16.01-35.37,35.75-35.37 C65.3,42.42,81.31,58.26,81.31,77.79L81.31,77.79z M81.8,77.79c0-19.8-16.23-35.86-36.25-35.86S9.31,57.99,9.31,77.79 c0,19.8,16.23,35.86,36.25,35.86S81.8,97.59,81.8,77.79L81.8,77.79z"/><path class="st26" d="M81.63,77.79c0,19.71-16.15,35.7-36.08,35.7c-19.93,0-36.08-15.98-36.08-35.7s16.15-35.7,36.08-35.7 C65.48,42.09,81.63,58.08,81.63,77.79L81.63,77.79z M82.13,77.79c0-19.98-16.37-36.18-36.57-36.18c-20.2,0-36.57,16.2-36.57,36.18 s16.37,36.18,36.57,36.18C65.75,113.97,82.13,97.77,82.13,77.79L82.13,77.79z"/><path class="st26" d="M81.96,77.79c0,19.89-16.3,36.02-36.41,36.02c-20.11,0-36.41-16.13-36.41-36.02 c0-19.89,16.3-36.02,36.41-36.02C65.66,41.77,81.96,57.9,81.96,77.79L81.96,77.79z M82.45,77.79c0-20.16-16.52-36.51-36.9-36.51 c-20.38,0-36.9,16.35-36.9,36.51c0,20.16,16.52,36.51,36.9,36.51C65.93,114.3,82.45,97.95,82.45,77.79L82.45,77.79z"/><path class="st26" d="M82.29,77.79c0,20.07-16.45,36.35-36.74,36.35c-20.29,0-36.74-16.27-36.74-36.35 c0-20.07,16.45-36.35,36.74-36.35C65.84,41.45,82.29,57.72,82.29,77.79L82.29,77.79z M82.78,77.79 c0-20.34-16.67-36.83-37.23-36.83c-20.56,0-37.23,16.49-37.23,36.83c0,20.34,16.67,36.83,37.23,36.83 C66.11,114.62,82.78,98.13,82.78,77.79L82.78,77.79z"/><path class="st26" d="M82.62,77.79c0,20.25-16.59,36.67-37.07,36.67c-20.47,0-37.07-16.42-37.07-36.67 c0-20.25,16.59-36.67,37.07-36.67C66.02,41.12,82.62,57.54,82.62,77.79L82.62,77.79z M83.11,77.79 c0-20.52-16.82-37.16-37.56-37.16c-20.74,0-37.56,16.64-37.56,37.16c0,20.52,16.82,37.16,37.56,37.16 C66.29,114.95,83.11,98.31,83.11,77.79L83.11,77.79z"/><path class="st26" d="M82.95,77.79c0,20.43-16.74,36.99-37.39,36.99c-20.65,0-37.39-16.56-37.39-36.99 c0-20.43,16.74-36.99,37.39-36.99C66.2,40.8,82.95,57.36,82.95,77.79L82.95,77.79z M83.44,77.79c0-20.7-16.96-37.48-37.89-37.48 c-20.92,0-37.89,16.78-37.89,37.48c0,20.7,16.96,37.48,37.89,37.48C66.48,115.27,83.44,98.49,83.44,77.79L83.44,77.79z"/><path class="st26" d="M83.27,77.79c0,20.61-16.89,37.32-37.72,37.32c-20.83,0-37.72-16.71-37.72-37.32 c0-20.61,16.89-37.32,37.72-37.32C66.38,40.47,83.27,57.18,83.27,77.79L83.27,77.79z M83.77,77.79 c0-20.88-17.11-37.81-38.21-37.81c-21.1,0-38.21,16.93-38.21,37.81c0,20.88,17.11,37.81,38.21,37.81 C66.66,115.6,83.77,98.67,83.77,77.79L83.77,77.79z"/><path class="st27" d="M83.6,77.79c0,20.79-17.04,37.64-38.05,37.64S7.5,98.58,7.5,77.79s17.04-37.64,38.05-37.64 S83.6,57,83.6,77.79L83.6,77.79z M84.09,77.79c0-21.06-17.26-38.13-38.54-38.13c-21.29,0-38.54,17.07-38.54,38.13 c0,21.06,17.26,38.13,38.54,38.13C66.84,115.92,84.09,98.85,84.09,77.79L84.09,77.79z"/><path class="st27" d="M83.93,77.79c0,20.97-17.18,37.97-38.38,37.97s-38.38-17-38.38-37.97c0-20.97,17.18-37.97,38.38-37.97 S83.93,56.82,83.93,77.79L83.93,77.79z M84.42,77.79c0-21.24-17.4-38.45-38.87-38.45c-21.47,0-38.87,17.22-38.87,38.45 s17.4,38.45,38.87,38.45C67.02,116.25,84.42,99.03,84.42,77.79L84.42,77.79z"/><path class="st27" d="M84.26,77.79c0,21.15-17.33,38.29-38.71,38.29c-21.38,0-38.71-17.14-38.71-38.29 c0-21.15,17.33-38.29,38.71-38.29C66.93,39.5,84.26,56.64,84.26,77.79L84.26,77.79z M84.75,77.79c0-21.42-17.55-38.78-39.2-38.78 c-21.65,0-39.2,17.36-39.2,38.78c0,21.42,17.55,38.78,39.2,38.78C67.2,116.57,84.75,99.21,84.75,77.79L84.75,77.79z"/><path class="st27" d="M84.59,77.79c0,21.33-17.48,38.62-39.03,38.62c-21.56,0-39.03-17.29-39.03-38.62 c0-21.33,17.48-38.62,39.03-38.62C67.11,39.17,84.59,56.46,84.59,77.79L84.59,77.79z M85.08,77.79c0-21.6-17.7-39.1-39.53-39.1 c-21.83,0-39.53,17.51-39.53,39.1c0,21.6,17.7,39.1,39.53,39.1C67.38,116.89,85.08,99.39,85.08,77.79L85.08,77.79z"/><path class="st28" d="M84.91,77.79c0,21.51-17.62,38.94-39.36,38.94c-21.74,0-39.36-17.43-39.36-38.94 c0-21.51,17.62-38.94,39.36-38.94C67.29,38.85,84.91,56.28,84.91,77.79L84.91,77.79z M85.41,77.79 c0-21.78-17.84-39.43-39.85-39.43C23.54,38.36,5.7,56.01,5.7,77.79c0,21.78,17.84,39.43,39.85,39.43 C67.56,117.22,85.41,99.57,85.41,77.79L85.41,77.79z"/><path class="st28" d="M85.24,77.79c0,21.69-17.77,39.27-39.69,39.27c-21.92,0-39.69-17.58-39.69-39.27 c0-21.69,17.77-39.27,39.69-39.27C67.47,38.52,85.24,56.1,85.24,77.79L85.24,77.79z M85.73,77.79c0-21.95-17.99-39.75-40.18-39.75 S5.37,55.84,5.37,77.79c0,21.95,17.99,39.75,40.18,39.75S85.73,99.75,85.73,77.79L85.73,77.79z"/><path class="st28" d="M85.57,77.79c0,21.87-17.92,39.59-40.02,39.59c-22.1,0-40.02-17.73-40.02-39.59 c0-21.87,17.92-39.59,40.02-39.59C67.65,38.2,85.57,55.93,85.57,77.79L85.57,77.79z M86.06,77.79c0-22.13-18.14-40.08-40.51-40.08 c-22.37,0-40.51,17.94-40.51,40.08c0,22.13,18.14,40.08,40.51,40.08C67.92,117.87,86.06,99.92,86.06,77.79L86.06,77.79z"/><path class="st28" d="M85.9,77.79c0,22.04-18.06,39.91-40.35,39.91c-22.28,0-40.35-17.87-40.35-39.91 c0-22.04,18.06-39.91,40.35-39.91C67.83,37.88,85.9,55.75,85.9,77.79L85.9,77.79z M86.39,77.79c0-22.31-18.28-40.4-40.84-40.4 C23,37.39,4.71,55.48,4.71,77.79s18.28,40.4,40.84,40.4C68.11,118.19,86.39,100.1,86.39,77.79L86.39,77.79z"/><path class="st3" d="M86.23,77.79c0,22.22-18.21,40.24-40.67,40.24c-22.46,0-40.67-18.02-40.67-40.24 c0-22.22,18.21-40.24,40.67-40.24C68.02,37.55,86.23,55.57,86.23,77.79L86.23,77.79z M86.72,77.79 c0-22.49-18.43-40.73-41.17-40.73c-22.74,0-41.17,18.23-41.17,40.73c0,22.49,18.43,40.73,41.17,40.73 C68.29,118.52,86.72,100.28,86.72,77.79L86.72,77.79z"/><path class="st3" d="M86.55,77.79c0,22.4-18.36,40.56-41,40.56c-22.64,0-41-18.16-41-40.56c0-22.4,18.36-40.56,41-40.56 C68.2,37.23,86.55,55.39,86.55,77.79L86.55,77.79z M87.05,77.79c0-22.67-18.58-41.05-41.49-41.05 c-22.92,0-41.49,18.38-41.49,41.05c0,22.67,18.58,41.05,41.49,41.05C68.47,118.84,87.05,100.46,87.05,77.79L87.05,77.79z"/><path class="st3" d="M86.88,77.79c0,22.58-18.5,40.89-41.33,40.89c-22.83,0-41.33-18.31-41.33-40.89 c0-22.58,18.5-40.89,41.33-40.89C68.38,36.9,86.88,55.21,86.88,77.79L86.88,77.79z M87.37,77.79c0-22.85-18.72-41.38-41.82-41.38 c-23.1,0-41.82,18.52-41.82,41.38c0,22.85,18.72,41.38,41.82,41.38C68.65,119.17,87.37,100.64,87.37,77.79L87.37,77.79z"/><path class="st3" d="M87.21,77.79c0,22.76-18.65,41.21-41.66,41.21c-23.01,0-41.66-18.45-41.66-41.21 c0-22.76,18.65-41.21,41.66-41.21C68.56,36.58,87.21,55.03,87.21,77.79L87.21,77.79z M87.54,77.79c0-22.94-18.8-41.54-41.99-41.54 S3.57,54.85,3.57,77.79c0,22.94,18.8,41.54,41.99,41.54S87.54,100.73,87.54,77.79L87.54,77.79z"/></g></g></svg>