<svg id="Layer_1" data-name="Layer 1" xmlns="http://www.w3.org/2000/svg" viewBox="0 0 123.97 118.35"><defs><style>.cls-1,.cls-3{fill:#d1661f;}.cls-2{fill:#f77d2b;}.cls-2,.cls-3{fill-rule:evenodd;}</style></defs><title>pumpkin</title><path class="cls-1" d="M74.46,115.8a35.12,35.12,0,0,1-13.52,2.55,36.94,36.94,0,0,1-13.78-2.88,3.15,3.15,0,0,1-1.77-1.91A98.75,98.75,0,0,1,40,91.86a148.21,148.21,0,0,1-1.19-25.65c.21-5.47,1.47-21.4,5.5-33.39C46.63,26,49.9,20.34,54.52,18a32.24,32.24,0,0,1,.78-3.58,32.7,32.7,0,0,1,1.47-4.22l.1-.21a37.9,37.9,0,0,1,1.83-3.6C59.42,5.13,60.2,3.94,61,2.8l.17-.21A6.77,6.77,0,0,1,72,10.73a26.39,26.39,0,0,0-1.53,2.35,23.64,23.64,0,0,0-1.25,2.45h0A20.57,20.57,0,0,0,68.38,18l0,.18c4.7,2.48,8,8.17,10.28,15C82.7,45.4,83.83,61.75,84,68.32a130.44,130.44,0,0,1-1.63,24.86,85.81,85.81,0,0,1-6.12,21,3.13,3.13,0,0,1-1.8,1.65Z"/><path class="cls-2" d="M73.42,112.87a32.51,32.51,0,0,1-25.06-.28C43.08,99,41.36,82,42,66.32c.32-8.51,3.24-43,15.54-46.16a3.84,3.84,0,0,1,0-.83,29.07,29.07,0,0,1,2.15-7.93,35.83,35.83,0,0,1,3.91-6.77,3.66,3.66,0,0,1,5.94,4.28,28.67,28.67,0,0,0-3.11,5.4,21.53,21.53,0,0,0-1.6,5.81C77.93,23,80.62,58.06,80.9,68.39c.41,15.47-1.7,31.66-7.48,44.48Z"/><path class="cls-1" d="M45.54,115.16c-7.59.78-11.7-1.16-15.83-3.1L28,111.25a3.12,3.12,0,0,1-1.56-1.54h0a94.61,94.61,0,0,1-8.86-41.85c.27-14,3.51-27.9,9.07-41.72a3.14,3.14,0,0,1,2.27-1.89,14.4,14.4,0,0,0,2.63-1.13C35.1,21.3,39.57,19,49.28,21.3a3.12,3.12,0,0,1,2.32,3.75,2.89,2.89,0,0,1-.48,1.07c-2.27,3.59-4.28,9.24-5.81,16.14a136.51,136.51,0,0,0-3,24.05,147.49,147.49,0,0,0,1,24.17A98.86,98.86,0,0,0,48.15,111a3.11,3.11,0,0,1-1.88,4,3.08,3.08,0,0,1-.73.16Z"/><path class="cls-2" d="M45.23,112.06c-7.83.8-11.59-1.68-16-3.65-12.37-26.83-10.59-54.14.27-81.11,4.32-1,7.29-5.71,19.09-3-4.94,7.71-8.65,23.93-9.33,41.86-.57,15.38,1,32.11,6,45.86Z"/><path class="cls-1" d="M27.45,111.12C16.5,109.29,8.79,101.25,4.37,90.7A60.65,60.65,0,0,1,0,67.57a59.23,59.23,0,0,1,4.48-23.1c4.45-10.33,12.21-18.17,23.39-20a3.11,3.11,0,0,1,3.56,2.58,3.15,3.15,0,0,1-.18,1.65A126.94,126.94,0,0,0,25.2,48.8,101.59,101.59,0,0,0,23,68.54,91,91,0,0,0,24.8,88a93.66,93.66,0,0,0,6,18.8,3.1,3.1,0,0,1-1.61,4.09,3.05,3.05,0,0,1-1.75.22Z"/><path class="cls-2" d="M28,108.05c-32.79-5.49-33.62-75,.4-80.47C23,41.38,20,55,19.85,68.5A94.65,94.65,0,0,0,28,108.05Z"/><path class="cls-1" d="M74.35,21.21a23.33,23.33,0,0,1,10.48-.68,27.43,27.43,0,0,1,10.33,3.95,3,3,0,0,1,.64.53c2.2,2.17,4,7.73,5.5,14.3,2.47,11.14,4.44,25.94,4.48,29.19a93.39,93.39,0,0,1-2,20.82,96.62,96.62,0,0,1-6.88,20.48,3.1,3.1,0,0,1-1.51,1.52c-4.74,2.4-7,2.65-15.23,3.56l-2.22.25a3.12,3.12,0,0,1-3.43-2.76,3.05,3.05,0,0,1,.31-1.73,87.62,87.62,0,0,0,5.11-19.19,129.61,129.61,0,0,0,1.39-23.07,136.48,136.48,0,0,0-2.74-23.94,78,78,0,0,0-6.17-18.8,3.11,3.11,0,0,1,1.36-4.19,2.71,2.71,0,0,1,.63-.24Z"/><path class="cls-2" d="M75.13,24.22C80.22,22.63,86.9,23,93.5,27.11c4,1.42,9.11,36.33,9.17,41.43a91.33,91.33,0,0,1-8.65,40c-4.67,2.37-6.81,2.45-16.47,3.53,5.29-12.92,7.22-28.67,6.82-43.72-.46-17.39-4.06-33.91-9.24-44.09Z"/><path class="cls-1" d="M96.61,24.48c10.62,2,18.19,9.86,22.65,20.11A60.7,60.7,0,0,1,124,68.28a58.13,58.13,0,0,1-4.6,23.58c-4.37,9.88-11.86,17.36-22.57,19.27a3.12,3.12,0,0,1-3.31-4.5,92.79,92.79,0,0,0,6-18.79,91.36,91.36,0,0,0,1.8-19.29A102.18,102.18,0,0,0,99,48.76a127.09,127.09,0,0,0-6.09-20.13,3.12,3.12,0,0,1,3.68-4.15Z"/><path class="cls-2" d="M95.83,27.5c32.57,5.89,34,74.57.43,80.56a94.47,94.47,0,0,0,8.11-39.55c-.17-13.5-3.13-27.18-8.54-41Z"/><path class="cls-3" d="M57.47,20.14a5.48,5.48,0,0,1,0-.81A36.06,36.06,0,0,1,59.1,11.4a39.42,39.42,0,0,1,3-6.77c.89-1.64,2.62-2,3.86-.83a4.46,4.46,0,0,1,.63,5.11,32.38,32.38,0,0,0-2.35,5.4,32,32,0,0,0-1.14,5.83Z"/></svg>